<?xml version="1.0" standalone="no"?>
<!DOCTYPE svg PUBLIC "-//W3C//DTD SVG 1.1//EN"
  "http://www.w3.org/Graphics/SVG/1.1/DTD/svg11.dtd">
<svg width="263mm" height="206.00099945068354mm" viewBox="-106 -99.99999999999997 263 206.00099945068354" xmlns="http://www.w3.org/2000/svg" version="1.1">
	<title>svgOutput</title>
	<desc>made with tinkercad</desc>
<path d="M 89 -69.10299682617186 L 86.00199890136719 -69.10299682617186 L 85.99800109863281 -69.10299682617186 L 85.99800109863281 -23.107000350952145 L 85.99800109863281 11.003000259399412 L 86.00199890136719 11.003000259399412 L 89 11.003000259399412 L 89 31.002000808715813 L 86.00199890136719 31.002000808715813 L 86.00199890136719 40.99999999999999 L 85.99800109863281 40.99999999999999 L 50.99800109863281 40.99999999999999 L 31.99799919128418 40.99999999999999 L 31.99799919128418 31.002000808715813 L 31.898000717163086 31.002000808715813 L 29 31.002000808715813 L 29 11.001000404357908 L 31.898000717163086 11.001000404357908 L 31.898000717163086 -69.00099945068358 L 29 -69.00099945068358 L 29 -89.00199890136717 L 31.898000717163086 -89.00199890136717 L 31.99799919128418 -89.00199890136717 L 31.99799919128418 -98.99999999999997 L 50.99800109863281 -98.99999999999997 L 58.85200119018555 -98.99999999999997 L 65.23500061035156 -98.99999999999997 L 71.99099731445312 -98.99999999999997 L 85.99800109863281 -98.99999999999997 L 86.00199890136719 -98.99999999999997 L 86.00199890136719 -89.10199737548827 L 89 -89.10199737548827 L 89 -69.10299682617186 M 56.77299880981445 9.123000144958494 L 56.76903533935547 9.085873603820799 L 56.74599838256836 8.87023067474365 L 56.673553466796875 8.19200038909912 L 56.62099838256836 7.699999809265135 L 56.104000091552734 7.699999809265135 L 56.104000091552734 8.19200038909912 L 56.104000091552734 9.123000144958494 L 51.8120002746582 9.123000144958494 L 51.8120002746582 9.937000274658201 L 56.104000091552734 9.937000274658201 L 56.104000091552734 11.685000419616697 L 56.74599838256836 11.685000419616697 L 56.74599838256836 9.937000274658201 L 57.209999084472656 9.937000274658201 L 57.34400177001953 9.946478843688963 L 57.520999908447266 9.95899963378906 L 57.76599884033203 10.024999618530272 L 57.94499969482422 10.135999679565428 L 58.02102279663086 10.239999771118162 L 58.06999969482422 10.307000160217283 L 58.14500045776367 10.557000160217283 L 58.16999816894531 10.883999824523924 L 58.15700149536133 11.192999839782713 L 58.117000579833984 11.505000114440916 L 58.05099868774414 11.81700038909912 L 58.07606887817383 11.824252128601072 L 58.12978744506836 11.839791297912596 L 58.245635986328125 11.873301506042479 L 58.56785202026367 11.96650981903076 L 58.694000244140625 12.00300025939941 L 58.78200149536133 11.628999710083006 L 58.822757720947266 11.33677291870117 L 58.834999084472656 11.248999595642088 L 58.85200119018555 10.864000320434569 L 58.808998107910156 10.300999641418455 L 58.791221618652344 10.239999771118162 L 58.73433303833008 10.044830322265623 L 58.67900085449219 9.854999542236326 L 58.46200180053711 9.527000427246092 L 58.14799880981445 9.303000450134276 L 57.729000091552734 9.16800022125244 L 57.34400177001953 9.135063171386717 L 57.202999114990234 9.123000144958494 L 56.77299880981445 9.123000144958494 M 57.209999084472656 4.41699981689453 L 57.34400177001953 4.42647886276245 L 57.520999908447266 4.439000129699706 L 57.76599884033203 4.505000114440917 L 57.94499969482422 4.614999771118163 L 58.06999969482422 4.787000179290771 L 58.14500045776367 5.03599977493286 L 58.16999816894531 5.362999916076659 L 58.15700149536133 5.6729998588562 L 58.117000579833984 5.9840002059936515 L 58.05099868774414 6.296999931335447 L 58.07582473754883 6.304142475128172 L 58.129878997802734 6.319694995880125 L 58.245689392089844 6.353014945983885 L 58.56977844238281 6.44625949859619 L 58.694000244140625 6.4819998741149885 L 58.78200149536133 6.10799980163574 L 58.822025299072266 5.821785926818847 L 58.834999084472656 5.7290000915527335 L 58.85200119018555 5.342999935150146 L 58.83832550048828 5.163971424102782 L 58.80946731567383 4.786097049713134 L 58.808998107910156 4.780000209808349 L 58.7346305847168 4.52485179901123 L 58.67900085449219 4.33400011062622 L 58.521541595458984 4.09600019454956 L 58.46200180053711 4.006000041961669 L 58.14799880981445 3.7820000648498526 L 57.729000091552734 3.647000074386596 L 57.202999114990234 3.6019999980926505 L 56.77299880981445 3.6019999980926505 L 56.76903533935547 3.5648736953735343 L 56.74390411376953 3.329606294631957 L 56.68039321899414 2.7350461483001705 L 56.62099838256836 2.1789999008178706 L 56.104000091552734 2.1789999008178706 L 56.104000091552734 2.3238599300384517 L 56.104000091552734 3.123431921005248 L 56.104000091552734 3.507979154586791 L 56.104000091552734 3.6019999980926505 L 51.8120002746582 3.6019999980926505 L 51.8120002746582 4.09600019454956 L 51.8120002746582 4.41699981689453 L 56.104000091552734 4.41699981689453 L 56.104000091552734 6.164000034332274 L 56.45692825317383 6.164000034332274 L 56.74599838256836 6.164000034332274 L 56.74599838256836 4.41699981689453 L 57.209999084472656 4.41699981689453 M 52.46799850463867 -0.025000000372528912 L 52.33018493652344 1.1102230246251565e-16 L 51.8120002746582 0.09399999678134927 L 51.8120002746582 0.755999982357025 L 53.90619659423828 0.755999982357025 L 56.31184768676758 0.755999982357025 L 56.74599838256836 0.755999982357025 L 56.74599838256836 1.1102230246251565e-16 L 56.74599838256836 -0.06499999761581408 L 54.176998138427734 -0.06499999761581408 L 53.604000091552734 -0.1010000035166739 L 53.24800109863281 -0.1878483444452284 L 53.14899826049805 -0.21199999749660475 L 52.8120002746582 -0.39599999785423257 L 52.58000183105469 -0.6600000262260435 L 52.441001892089844 -1.011000037193298 L 52.39500045776367 -1.4479999542236324 L 52.52399826049805 -2.036999940872192 L 52.91299819946289 -2.3900001049041744 L 53.24800109863281 -2.4504861831665035 L 53.56100082397461 -2.5069999694824214 L 56.74599838256836 -2.5069999694824214 L 56.74599838256836 -3.0820693969726554 L 56.74599838256836 -3.321000099182128 L 53.520999908447266 -3.321000099182128 L 53.24800109863281 -3.2680909633636466 L 52.77348709106445 -3.1761271953582755 L 52.52000045776367 -3.127000093460082 L 52.246219635009766 -2.8614311218261714 L 51.91999816894531 -2.545000076293945 L 51.89031219482422 -2.40158462524414 L 51.730018615722656 -1.6272219419479366 L 51.71900177001953 -1.5740000009536739 L 51.803001403808594 -0.9480000138282773 L 51.80374526977539 -0.9465013146400448 L 52.03355026245117 -0.48412054777145364 L 52.051998138427734 -0.44699999690055825 L 52.46799850463867 -0.07100000232458102 L 52.46799850463867 -0.025000000372528912 M 52.78099822998047 -6.827000141143797 L 53.24800109863281 -6.919043540954588 L 53.26300048828125 -6.921999931335447 L 56.104000091552734 -6.921999931335447 L 56.104000091552734 -4.955999851226806 L 56.74599838256836 -4.955999851226806 L 56.74599838256836 -6.921999931335447 L 57.34400177001953 -6.921999931335447 L 58.05799865722656 -6.921999931335447 L 58.05799865722656 -7.392000198364256 L 57.34400177001953 -7.5836963653564435 L 57.03760528564453 -7.665957927703856 L 56.77299880981445 -7.736999988555906 L 56.68754577636719 -8.19200038909912 L 56.54800033569336 -8.935000419616697 L 56.104000091552734 -8.935000419616697 L 56.104000091552734 -8.19200038909912 L 56.104000091552734 -7.9166150093078596 L 56.104000091552734 -7.736999988555906 L 53.25600051879883 -7.736999988555906 L 53.24800109863281 -7.735304355621336 L 52.70808029174805 -7.620871543884276 L 52.402000427246094 -7.556000232696531 L 52.3478889465332 -7.498928546905516 L 52.27545928955078 -7.422537803649901 L 51.88999938964844 -7.015999794006346 L 51.71900177001953 -6.114999771118162 L 51.73500061035156 -5.748000144958495 L 51.78099822998047 -5.370999813079833 L 51.85900115966797 -4.982999801635741 L 52.4651985168457 -4.982999801635741 L 52.48099899291992 -4.982999801635741 L 52.43299865722656 -5.396999835968017 L 52.404998779296875 -5.756999969482421 L 52.39500045776367 -6.061999797821043 L 52.49100112915039 -6.539999961853026 L 52.78099822998047 -6.827000141143797 M 52.4739990234375 -11.828000068664549 L 52.421180725097656 -12.28800010681152 L 52.39500045776367 -12.515999794006344 L 52.4370002746582 -13.053000450134274 L 52.5629997253418 -13.60400009155273 L 52.77199935913086 -14.170999526977536 L 52.692657470703125 -14.170999526977536 L 52.52444076538086 -14.170999526977536 L 52.20496368408203 -14.170999526977536 L 52.02399826049805 -14.170999526977536 L 51.85499954223633 -13.730999946594235 L 51.8120002746582 -13.494500160217282 L 51.75299835205078 -13.170000076293942 L 51.71900177001953 -12.489000320434567 L 51.73362350463867 -12.28800010681152 L 51.762001037597656 -11.897999763488768 L 51.805118560791016 -11.73158550262451 L 51.88999938964844 -11.404000282287596 L 52.041683197021484 -11.122608184814451 L 52.104000091552734 -11.00699996948242 L 52.39099884033203 -10.711999893188475 L 52.742000579833984 -10.536000251770018 L 53.15700149536133 -10.477000236511229 L 53.24800109863281 -10.487307548522947 L 53.465999603271484 -10.512000083923338 L 53.73899841308594 -10.614999771118162 L 53.97800064086914 -10.788000106811522 L 54.20399856567383 -11.064999580383299 L 54.430999755859375 -11.482000350952147 L 54.65999984741211 -12.038999557495114 L 54.75376510620117 -12.28800010681152 L 54.84000015258789 -12.517000198364254 L 54.99300003051758 -12.862999916076657 L 55.117000579833984 -13.079000473022457 L 55.236000061035156 -13.204000473022457 L 55.29600143432617 -13.234822273254391 L 55.38199996948242 -13.279000282287594 L 55.55400085449219 -13.303999900817868 L 55.8849983215332 -13.1870002746582 L 56.08399963378906 -12.83600044250488 L 56.14582443237305 -12.28800010681152 L 56.150001525878906 -12.251000404357907 L 56.11399841308594 -11.82199954986572 L 56.00600051879883 -11.347999572753904 L 55.82600021362305 -10.828000068664549 L 55.882320404052734 -10.805185317993162 L 56.023860931396484 -10.747849464416502 L 56.33374786376953 -10.622320175170897 L 56.494998931884766 -10.557000160217283 L 56.68199920654297 -11.081999778747557 L 56.79499816894531 -11.635999679565428 L 56.832000732421875 -12.218000411987301 L 56.82699203491211 -12.28800010681152 L 56.792999267578125 -12.76299953460693 L 56.7642707824707 -12.876200675964352 L 56.67599868774414 -13.223999977111813 L 56.559059143066406 -13.450084686279293 L 56.48099899291992 -13.600999832153317 L 56.32622528076172 -13.764046669006344 L 56.21900177001953 -13.8769998550415 L 55.89899826049805 -14.043000221252438 L 55.520999908447266 -14.097999572753903 L 55.29600143432617 -14.074148178100582 L 55.237998962402344 -14.067999839782711 L 54.981998443603516 -13.977000236511227 L 54.75299835205078 -13.826999664306637 L 54.52899932861328 -13.560000419616696 L 54.29100036621094 -13.123000144958493 L 54.03799819946289 -12.515999794006344 L 53.948463439941406 -12.28800010681152 L 53.85499954223633 -12.05000019073486 L 53.69599914550781 -11.71000003814697 L 53.56100082397461 -11.49600028991699 L 53.42499923706055 -11.374999999999998 L 53.275001525878906 -11.302000045776365 L 53.24800109863281 -11.298072814941404 L 53.11000061035156 -11.277999877929686 L 52.7130012512207 -11.416000366210936 L 52.4739990234375 -11.828000068664549 M 52.448001861572266 -17.361000061035153 L 52.493194580078125 -17.361000061035153 L 56.04153823852539 -17.361000061035153 L 56.74599838256836 -17.361000061035153 L 56.74599838256836 -19.38699913024902 L 56.196998596191406 -19.38699913024902 L 56.104000091552734 -18.174999237060543 L 52.448001861572266 -18.174999237060543 L 52.38071060180664 -19.38699913024902 L 52.36199951171875 -19.72400093078613 L 51.8120002746582 -19.72400093078613 L 51.8120002746582 -16.38400077819824 L 51.8120002746582 -15.779000282287594 L 52.22736358642578 -15.779000282287594 L 52.36199951171875 -15.779000282287594 L 52.39488983154297 -16.38400077819824 L 52.448001861572266 -17.361000061035153 M 56.426326751708984 -24.27193069458007 L 56.084861755371094 -24.57600021362304 L 56.07699966430664 -24.58300018310546 L 56.07699966430664 -24.622999191284173 L 56.720001220703125 -24.590000152587884 L 57.34400177001953 -24.590000152587884 L 58.79999923706055 -24.590000152587884 L 58.79999923706055 -25.403999328613274 L 57.34400177001953 -25.403999328613274 L 56.07699966430664 -25.403999328613274 L 55.15502166748047 -25.403999328613274 L 53.24800109863281 -25.403999328613274 L 51.8120002746582 -25.403999328613274 L 51.8120002746582 -24.590000152587884 L 53.24800109863281 -24.590000152587884 L 54.36199951171875 -24.590000152587884 L 54.45286178588867 -24.57600021362304 L 55.35499954223633 -24.437000274658196 L 55.95199966430664 -23.978000640869137 L 56.150001525878906 -23.212999343872067 L 56.020999908447266 -22.62100028991699 L 55.63199996948242 -22.26600074768066 L 54.98500061035156 -22.146999359130856 L 51.8120002746582 -22.146999359130856 L 51.8120002746582 -21.56340408325195 L 51.8120002746582 -21.326000213623043 L 54.60197067260742 -21.326000213623043 L 55.03099822998047 -21.326000213623043 L 55.770023345947266 -21.4692268371582 L 56.03200149536133 -21.52000045776367 L 56.47642135620117 -21.951828002929684 L 56.63199996948242 -22.103000640869137 L 56.832000732421875 -23.073999404907223 L 56.79877853393555 -23.326959609985348 L 56.749000549316406 -23.705999374389645 L 56.49700164794922 -24.208999633789055 L 56.426326751708984 -24.27193069458007 M 52.43899917602539 -28.542999267578118 L 52.42535400390625 -28.67200088500976 L 52.39500045776367 -28.958999633789055 L 52.60200119018555 -29.642999649047844 L 53.22200012207031 -30.052999496459954 L 53.24800109863281 -30.056444168090813 L 54.25600051879883 -30.19000053405761 L 55.30799865722656 -30.05400085449218 L 55.939998626708984 -29.645000457763665 L 56.150001525878906 -28.965000152587884 L 56.11602783203125 -28.67200088500976 L 56.10200119018555 -28.551000595092766 L 55.95899963378906 -28.218000411987298 L 55.720001220703125 -27.965999603271477 L 55.36399841308594 -27.792999267578118 L 55.29600143432617 -27.77844810485839 L 54.87799835205078 -27.688999176025384 L 54.26300048828125 -27.6550006866455 L 54.07699966430664 -27.6550006866455 L 53.540000915527344 -27.69899940490722 L 53.24800109863281 -27.771318435668938 L 53.11199951171875 -27.805000305175774 L 52.79199981689453 -27.972000122070305 L 52.571998596191406 -28.21400070190429 L 52.43899917602539 -28.542999267578118 M 52.46799850463867 -27.621000289916985 L 52.286834716796875 -27.58647918701171 L 51.8120002746582 -27.496000289916985 L 51.8120002746582 -26.833999633789055 L 52.67475891113281 -26.833999633789055 L 53.24800109863281 -26.833999633789055 L 55.29600143432617 -26.833999633789055 L 57.34400177001953 -26.833999633789055 L 58.79999923706055 -26.833999633789055 L 58.79999923706055 -27.6550006866455 L 57.34400177001953 -27.6550006866455 L 56.8390007019043 -27.6550006866455 L 56.689998626708984 -27.649000167846673 L 56.448001861572266 -27.63100051879882 L 56.111000061035156 -27.601999282836907 L 56.111000061035156 -27.6059341430664 L 56.111000061035156 -27.625684738159173 L 56.111000061035156 -27.6550006866455 L 56.512001037597656 -28.048000335693352 L 56.75199890136719 -28.531000137329094 L 56.77168655395508 -28.67200088500976 L 56.82735824584961 -29.07074546813964 L 56.832000732421875 -29.104000091552727 L 56.75699996948242 -29.658000946044915 L 56.64899444580078 -29.88064002990722 L 56.52899932861328 -30.128000259399407 L 56.213470458984375 -30.449356079101555 L 56.150001525878906 -30.513999938964837 L 55.783935546875 -30.719999313354485 L 55.63999938964844 -30.801000595092766 L 55.24058532714844 -30.910219192504876 L 55.01100158691406 -30.9729995727539 L 54.26300048828125 -31.0300006866455 L 53.51900100708008 -30.974000930786126 L 53.24800109863281 -30.90028762817382 L 52.95867919921875 -30.82159233093261 L 52.89400100708008 -30.80400085449218 L 52.38800048828125 -30.52099990844726 L 52.24551010131836 -30.372364044189446 L 52.016998291015625 -30.134000778198235 L 51.79399871826172 -29.662000656127923 L 51.71900177001953 -29.104000091552727 L 51.781673431396484 -28.67200088500976 L 51.803001403808594 -28.524999618530266 L 51.8120002746582 -28.507541656494134 L 51.82899856567383 -28.474565505981438 L 52.03691482543945 -28.071258544921868 L 52.051998138427734 -28.041999816894524 L 52.46799850463867 -27.6550006866455 L 52.46799850463867 -27.621000289916985 M 56.01100158691406 -32.98799896240234 L 55.92942810058594 -32.76800155639648 L 55.87900161743164 -32.631999969482415 L 56.62699890136719 -32.40700149536132 L 56.739749908447266 -32.76800155639648 L 56.74100112915039 -32.77199935913085 L 56.810001373291016 -33.1339988708496 L 56.82174301147461 -33.32559585571288 L 56.832000732421875 -33.49300003051757 L 56.80699920654297 -33.85200119018554 L 56.76411437988281 -34.027942657470696 L 56.729000091552734 -34.17200088500976 L 56.60100173950195 -34.45299911499023 L 56.41299819946289 -34.70800018310546 L 56.30103302001953 -34.81600189208984 L 56.159000396728516 -34.95299911499023 L 56.0655632019043 -35.02132415771484 L 55.86498260498047 -35.16799926757812 L 55.8390007019043 -35.187000274658196 L 55.8390007019043 -35.22100067138671 L 55.876869201660156 -35.22513198852538 L 56.74599838256836 -35.31999969482421 L 56.74599838256836 -35.98199844360351 L 55.092201232910156 -35.98199844360351 L 54.7518196105957 -35.98199844360351 L 53.24800109863281 -35.98199844360351 L 51.8120002746582 -35.98199844360351 L 51.8120002746582 -35.16799926757812 L 53.24800109863281 -35.16799926757812 L 54.487998962402344 -35.16799926757812 L 54.97200012207031 -35.123001098632805 L 55.374000549316406 -34.99100112915038 L 55.62660217285156 -34.81600189208984 L 55.69300079345703 -34.770000457763665 L 55.92900085449219 -34.467998504638665 L 56.06999969482422 -34.09099960327148 L 56.117000579833984 -33.63800048828124 L 56.090999603271484 -33.32400131225585 L 56.01100158691406 -32.98799896240234 M 52.44499969482422 -40.84000015258788 L 52.553321838378906 -40.95999908447265 L 52.7140007019043 -41.13800048828124 L 53.16299819946289 -41.23799896240234 L 53.24800109863281 -41.22649765014648 L 53.465999603271484 -41.1969985961914 L 53.71099853515625 -41.07600021362304 L 53.81838607788086 -40.95999908447265 L 53.89799880981445 -40.8740005493164 L 54.03799819946289 -40.56999969482421 L 54.13100051879883 -40.15599822998046 L 54.176998138427734 -39.62900161743163 L 54.209503173828125 -38.91199874877929 L 54.209999084472656 -38.90100097656249 L 53.75899887084961 -38.90100097656249 L 53.65437316894531 -38.91199874877929 L 53.349998474121094 -38.94400024414062 L 53.24800109863281 -38.98254776000976 L 53.00600051879883 -39.07400131225585 L 52.72600173950195 -39.29100036621093 L 52.52000045776367 -39.58200073242187 L 52.395999908447266 -39.932998657226555 L 52.35499954223633 -40.344001770019524 L 52.44499969482422 -40.84000015258788 M 54.77299880981445 -38.89400100708007 L 54.77234649658203 -38.91199874877929 L 54.769840240478516 -38.98086166381835 L 54.7400016784668 -39.80099868774413 L 54.707698822021484 -39.99935150146484 L 54.55126190185547 -40.95999908447265 L 54.536251068115234 -41.05218124389648 L 54.534000396728516 -41.06600189208984 L 54.01499938964844 -41.825000762939446 L 53.24800109863281 -42.058235168457024 L 53.18299865722656 -42.07799911499023 L 52.75400161743164 -42.033000946044915 L 52.39400100708008 -41.89599990844726 L 52.104000091552734 -41.66799926757812 L 51.88999938964844 -41.35499954223632 L 51.762001037597656 -40.97399902343749 L 51.76066589355469 -40.95999908447265 L 51.735008239746094 -40.6908950805664 L 51.71900177001953 -40.522998809814446 L 51.73699951171875 -40.16600036621093 L 51.75830841064453 -40.040962219238274 L 51.790000915527344 -39.85499954223632 L 51.87799835205078 -39.58900070190429 L 51.943782806396484 -39.475418090820305 L 52.016998291015625 -39.34899902343749 L 52.2140007019043 -39.11299896240234 L 52.434059143066406 -38.91199874877929 L 52.46799850463867 -38.88100051879882 L 52.46799850463867 -38.8479995727539 L 51.8120002746582 -38.67599868774413 L 51.8120002746582 -38.08000183105468 L 52.46799850463867 -38.08000183105468 L 53.24800109863281 -38.08000183105468 L 55.18299865722656 -38.08000183105468 L 55.70899963378906 -38.13100051879882 L 56.12799835205078 -38.283000946044915 L 56.44200134277344 -38.53699874877929 L 56.659000396728516 -38.903999328613274 L 56.66111373901367 -38.91199874877929 L 56.70886993408203 -39.09273147583007 L 56.78900146484375 -39.39599990844726 L 56.832000732421875 -40.01300048828124 L 56.784000396728516 -40.57799911499023 L 56.68683624267578 -40.95999908447265 L 56.63800048828125 -41.15200042724609 L 56.39500045776367 -41.73400115966796 L 55.77899932861328 -41.44900131225585 L 55.97197723388672 -40.95999908447265 L 55.98500061035156 -40.92699813842773 L 56.10900115966797 -40.437000274658196 L 56.150001525878906 -39.97999954223632 L 56.03200149536133 -39.37699890136718 L 55.67599868774414 -39.01499938964843 L 55.29600143432617 -38.937332153320305 L 55.17206573486328 -38.91199874877929 L 55.08399963378906 -38.89400100708007 L 54.77299880981445 -38.89400100708007 M 51.652000427246094 -44.67800140380859 L 51.624237060546875 -45.05599975585937 L 51.612998962402344 -45.208999633789055 L 51.698001861572266 -45.86999893188476 L 51.95199966430664 -46.421001434326165 L 52.375 -46.86399841308593 L 52.803890228271484 -47.10400009155273 L 52.95399856567383 -47.18799972534179 L 53.24800109863281 -47.26699829101562 L 53.67599868774414 -47.381999969482415 L 54.54100036621094 -47.4469985961914 L 55.29600143432617 -47.39509963989257 L 55.47200012207031 -47.38299942016601 L 56.2599983215332 -47.19400024414062 L 56.44312286376953 -47.10400009155273 L 56.70293045043945 -46.97631072998046 L 56.904998779296875 -46.87699890136718 L 57.34400177001953 -46.48474121093749 L 57.38399887084961 -46.44900131225585 L 57.67100143432617 -45.921001434326165 L 57.76599884033203 -45.294998168945305 L 57.6879997253418 -44.772998809814446 L 57.45100021362305 -44.32699966430663 L 57.34400177001953 -44.22653579711913 L 57.18254852294922 -44.07494354248046 L 57.05799865722656 -43.95800018310546 L 56.5260009765625 -43.67900085449218 L 55.874000549316406 -43.511001586914055 L 55.29600143432617 -43.46896362304687 L 55.104000091552734 -43.45500183105468 L 54.1510009765625 -43.50500106811523 L 53.57899856567383 -43.65499877929687 L 53.38800048828125 -43.90499877929687 L 53.451141357421875 -44.03200149536132 L 53.47600173950195 -44.08200073242187 L 53.73899841308594 -44.18799972534179 L 54.176998138427734 -44.2229995727539 L 54.209999084472656 -44.2229995727539 L 54.305999755859375 -44.222000122070305 L 54.40999984741211 -44.22000122070312 L 54.520999908447266 -44.21599960327148 L 55.29600143432617 -44.17492675781249 L 55.67226791381836 -44.154983520507805 L 55.78769302368164 -44.14886856079101 L 56.388999938964844 -44.11700057983398 L 56.50600051879883 -44.48300170898437 L 56.57699966430664 -44.86700057983398 L 56.58828353881836 -45.05599975585937 L 56.59873580932617 -45.23107910156249 L 56.60100173950195 -45.26900100708007 L 56.558349609375 -45.563552856445305 L 56.5369987487793 -45.71099853515624 L 56.34700012207031 -46.092998504638665 L 56.03099822998047 -46.41400146484374 L 55.61199951171875 -46.65299987792968 L 55.29600143432617 -46.74355697631835 L 55.267486572265625 -46.75172805786132 L 55.112998962402344 -46.796001434326165 L 54.534000396728516 -46.844001770019524 L 54.040000915527344 -46.81000137329101 L 53.87587356567383 -46.76945495605468 L 53.61899948120117 -46.706001281738274 L 53.26900100708008 -46.533000946044915 L 53.24800109863281 -46.51404190063476 L 53.012001037597656 -46.30099868774413 L 52.856998443603516 -46.02099990844726 L 52.805999755859375 -45.69200134277343 L 52.89500045776367 -45.270000457763665 L 53.06394577026367 -45.05599975585937 L 53.165000915527344 -44.92800140380859 L 53.24800109863281 -44.879566192626946 L 53.61399841308594 -44.66600036621093 L 53.61399841308594 -44.65299987792968 L 53.24800109863281 -44.53969573974609 L 53.165000915527344 -44.51399993896484 L 52.89500045776367 -44.27399826049804 L 52.805999755859375 -43.93199920654296 L 52.875 -43.61199951171874 L 53.082000732421875 -43.342998504638665 L 53.24800109863281 -43.237930297851555 L 53.428001403808594 -43.1240005493164 L 53.75490951538086 -43.00799942016601 L 53.893001556396484 -42.958999633789055 L 54.45000076293945 -42.85900115966796 L 55.09700012207031 -42.82600021362304 L 56.04100036621094 -42.90100097656249 L 56.42755126953125 -43.00799942016601 L 56.84299850463867 -43.123001098632805 L 57.34400177001953 -43.406238555908196 L 57.49666976928711 -43.49254989624023 L 57.500999450683594 -43.49499893188476 L 57.96762466430664 -43.96638870239257 L 57.99100112915039 -43.99000167846679 L 58.284000396728516 -44.58300018310546 L 58.307621002197266 -44.74979400634765 L 58.38199996948242 -45.2750015258789 L 58.33525085449219 -45.59903335571288 L 58.26599884033203 -46.07899856567382 L 57.91699981689453 -46.761001586914055 L 57.34400177001953 -47.31328964233398 L 57.33599853515625 -47.320999145507805 L 56.560001373291016 -47.73600006103515 L 55.619998931884766 -47.98600006103515 L 55.29600143432617 -48.010314941406236 L 54.513999938964844 -48.06900024414061 L 53.487998962402344 -47.98600006103515 L 53.24800109863281 -47.91647338867187 L 52.625 -47.73600006103515 L 51.92499923706055 -47.320999145507805 L 51.72685241699219 -47.10400009155273 L 51.49265670776367 -46.847522735595696 L 51.40999984741211 -46.756999969482415 L 51.10100173950195 -46.062000274658196 L 50.99800109863281 -45.23600006103515 L 51.01115417480469 -45.05599975585937 L 51.03900146484375 -44.67499923706054 L 51.1619987487793 -44.1500015258789 L 51.36800003051758 -43.6599998474121 L 51.95800018310547 -43.6599998474121 L 51.766998291015625 -44.16199874877929 L 51.652000427246094 -44.67800140380859 M 54.0099983215332 -45.04100036621093 L 53.97655487060547 -45.05599975585937 L 53.54399871826172 -45.24999999999999 L 53.38800048828125 -45.57300186157226 L 53.513999938964844 -45.881999969482415 L 53.888999938964844 -46.068000793457024 L 54.513999938964844 -46.12900161743163 L 54.92900085449219 -46.10699844360351 L 55.28900146484375 -46.03799819946288 L 55.29600143432617 -46.03538513183593 L 55.59400177001953 -45.923999786376946 L 55.82600021362305 -45.76399993896484 L 55.96500015258789 -45.56499862670898 L 56.01100158691406 -45.32799911499023 L 56.000999450683594 -45.18099975585937 L 55.97516632080078 -45.05599975585937 L 55.970001220703125 -45.03099822998046 L 55.917999267578125 -44.877998352050774 L 55.29600143432617 -44.91426467895507 L 54.7859992980957 -44.94400024414062 L 54.0099983215332 -45.04100036621093 M 68.572998046875 -25.715000152587884 L 71.89800262451172 -27.40299987792968 L 71.89800262451172 -28.309999465942376 L 67.83799743652344 -26.125999450683587 L 65.3270034790039 -26.125999450683587 L 65.3270034790039 -25.291999816894524 L 66.28761291503906 -25.291999816894524 L 67.88400268554688 -25.291999816894524 L 69.1993408203125 -24.57600021362304 L 71.89800262451172 -23.107000350952145 L 71.89800262451172 -24.013999938964837 L 70.7994384765625 -24.57600021362304 L 69.39984893798828 -25.291999816894524 L 68.572998046875 -25.715000152587884 M 66.1719970703125 -30.384000778198235 L 66.11334228515625 -30.719999313354485 L 66.03600311279297 -31.163000106811516 L 66.03600311279297 -32.54000091552734 L 68.4010009765625 -32.54000091552734 L 68.4010009765625 -31.215999603271477 L 68.32313537597656 -30.719999313354485 L 68.27400207519531 -30.406999588012688 L 67.89399719238281 -29.92200088500976 L 67.58399963378906 -29.842538833618157 L 67.26200103759766 -29.76000022888183 L 66.58100128173828 -29.91600036621093 L 66.1719970703125 -30.384000778198235 M 69.2249984741211 -30.51700019836425 L 69.17560577392578 -30.719999313354485 L 69.14299774169922 -30.854000091552727 L 69.11599731445312 -31.27599906921386 L 69.11599731445312 -32.54000091552734 L 69.63200378417969 -32.54000091552734 L 71.18299865722656 -32.54000091552734 L 71.18299865722656 -31.36800003051757 L 71.15599822998047 -30.919000625610344 L 71.1123275756836 -30.719999313354485 L 71.0770034790039 -30.559000015258782 L 70.94400024414062 -30.28899955749511 L 70.75599670410156 -30.0979995727539 L 70.5 -29.98399925231933 L 70.1760025024414 -29.94499969482421 L 69.83200073242188 -29.981000900268548 L 69.63200378417969 -30.05849075317382 L 69.56099700927734 -30.086000442504876 L 69.36100006103516 -30.263000488281243 L 69.3156967163086 -30.34760665893554 L 69.30424499511719 -30.368999481201165 L 69.2249984741211 -30.51700019836425 M 66.4800033569336 -40.833999633789055 L 66.4800033569336 -40.84267807006835 L 66.4800033569336 -40.86100006103515 L 66.4832992553711 -40.86258316040038 L 66.54874420166016 -40.89400100708007 L 66.68621826171875 -40.95999908447265 L 71.89800262451172 -43.4620018005371 L 71.89800262451172 -43.647998809814446 L 71.89800262451172 -43.7034568786621 L 71.89800262451172 -43.76179122924804 L 71.89800262451172 -43.79250717163085 L 71.89800262451172 -44.41600036621093 L 65.3270034790039 -44.41600036621093 L 65.3270034790039 -43.647998809814446 L 68.89099884033203 -43.647998809814446 L 69.37899780273438 -43.65700149536132 L 70.00399780273438 -43.682998657226555 L 70.76499938964844 -43.72700119018554 L 70.76499938964844 -43.71465682983398 L 70.76499938964844 -43.69400024414062 L 70.74026489257812 -43.6821060180664 L 70.66934204101562 -43.647998809814446 L 65.3270034790039 -41.07899856567382 L 65.3270034790039 -40.95999908447265 L 65.3270034790039 -40.89400100708007 L 65.3270034790039 -40.842597961425774 L 65.3270034790039 -40.806587219238274 L 65.3270034790039 -40.78554153442382 L 65.3270034790039 -40.11999893188476 L 71.89800262451172 -40.11999893188476 L 71.89800262451172 -40.89400100708007 L 68.3010025024414 -40.89400100708007 L 67.89600372314453 -40.88700103759765 L 67.28900146484375 -40.86800003051757 L 66.4800033569336 -40.833999633789055 M 69.37899780273438 -49.08800125122069 L 69.63200378417969 -49.025043487548814 L 70.0260009765625 -48.92699813842772 L 70.55400085449219 -48.6590003967285 L 70.94000244140625 -48.298000335693345 L 71.1719970703125 -47.85300064086913 L 71.2490005493164 -47.3219985961914 L 71.20700073242188 -46.91400146484374 L 71.08100128173828 -46.49499893188476 L 70.87100219726562 -46.06399917602538 L 70.9419174194336 -46.03248214721679 L 71.10862731933594 -45.958389282226555 L 71.47003173828125 -45.79776382446288 L 71.5999984741211 -45.74000167846679 L 71.81700134277344 -46.22100067138671 L 71.88380432128906 -46.48768997192382 L 71.9469985961914 -46.74000167846679 L 71.99099731445312 -47.294998168945305 L 71.98812103271484 -47.31776046752929 L 71.90526580810547 -47.97312927246093 L 71.89099884033203 -48.085998535156236 L 71.70043182373047 -48.510334014892564 L 71.59100341796875 -48.754001617431626 L 71.22647094726562 -49.15200042724608 L 71.08999633789062 -49.300998687744126 L 70.41799926757812 -49.701999664306626 L 69.59500122070312 -49.94200134277342 L 68.61900329589844 -50.021999359130845 L 67.63300323486328 -49.949001312255845 L 66.8030014038086 -49.728000640869126 L 66.12899780273438 -49.36000061035155 L 65.92141723632812 -49.15200042724608 L 65.88648223876953 -49.11699295043944 L 65.72227478027344 -48.9524574279785 L 65.63200378417969 -48.861999511718736 L 65.5794448852539 -48.754238128662095 L 65.53600311279297 -48.66516876220702 L 65.33399963378906 -48.25099945068358 L 65.23500061035156 -47.52700042724609 L 65.27100372314453 -46.86600112915038 L 65.38200378417969 -46.235000610351555 L 65.53600311279297 -45.73199081420898 L 65.56600189208984 -45.6339988708496 L 68.05599975585938 -45.6339988708496 L 68.7979965209961 -45.6339988708496 L 68.7979965209961 -47.533000946044915 L 68.05599975585938 -47.533000946044915 L 68.05599975585938 -46.47399902343749 L 66.09600067138672 -46.47399902343749 L 66.0260009765625 -46.783000946044915 L 65.98400115966797 -47.08300018310546 L 65.97000122070312 -47.37499999999999 L 66.26399993896484 -48.35599899291991 L 67.14399719238281 -48.9459991455078 L 68.05599975585938 -49.06768417358397 L 68.61299896240234 -49.14199829101561 L 68.7979965209961 -49.128959655761705 L 69.37899780273438 -49.08800125122069 M 65.96299743652344 -52.89500045776366 L 67.7982406616211 -52.89500045776366 L 71.25599670410156 -52.89500045776366 L 71.34200286865234 -51.57799911499022 L 71.89800262451172 -51.57799911499022 L 71.89800262451172 -52.89500045776366 L 71.89800262451172 -53.2480010986328 L 71.89800262451172 -55.060001373291 L 71.34200286865234 -55.060001373291 L 71.25599670410156 -53.72900009155272 L 69.71757507324219 -53.72900009155272 L 69.63200378417969 -53.72900009155272 L 69.548583984375 -53.72900009155272 L 67.79991912841797 -53.72900009155272 L 65.96299743652344 -53.72900009155272 L 65.87699890136719 -55.060001373291 L 65.53600311279297 -55.060001373291 L 65.3270034790039 -55.060001373291 L 65.3270034790039 -53.2480010986328 L 65.3270034790039 -51.57799911499022 L 65.87699890136719 -51.57799911499022 L 65.92939758300781 -52.380466461181626 L 65.96299743652344 -52.89500045776366 M 65.94300079345703 -59.10400009155272 L 65.96380615234375 -59.39199829101561 L 65.97152709960938 -59.49883651733397 L 65.98699951171875 -59.71300125122069 L 66.11699676513672 -60.32799911499022 L 66.33399963378906 -60.95100021362303 L 66.24868774414062 -60.95100021362303 L 66.07644653320312 -60.95100021362303 L 65.53900146484375 -60.95100021362303 L 65.53600311279297 -60.942070007324205 L 65.37000274658203 -60.44800186157225 L 65.26799774169922 -59.83000183105467 L 65.23500061035156 -59.09799957275389 L 65.28900146484375 -58.38899993896483 L 65.4520034790039 -57.79700088500975 L 65.53600311279297 -57.651462554931626 L 65.6939697265625 -57.377765655517564 L 65.71345520019531 -57.34400177001952 L 65.7249984741211 -57.324001312255845 L 66.09300231933594 -56.978000640869126 L 66.54299926757812 -56.77099990844725 L 67.07599639892578 -56.701999664306626 L 67.49099731445312 -56.743000030517564 L 67.85299682617188 -56.866001129150376 L 68.16200256347656 -57.07199859619139 L 68.39087677001953 -57.34400177001952 L 68.43800354003906 -57.40000152587889 L 68.70999908447266 -57.88700103759764 L 68.97699737548828 -58.534999847412095 L 69.18499755859375 -59.07500076293944 L 69.27371978759766 -59.25512313842772 L 69.34113311767578 -59.39199829101561 L 69.38300323486328 -59.47700119018553 L 69.572998046875 -59.74000167846678 L 69.63200378417969 -59.78639984130858 L 69.77899932861328 -59.90200042724608 L 70.02400207519531 -59.99900054931639 L 70.30799865722656 -60.030998229980455 L 70.83100128173828 -59.88600158691405 L 71.1449966430664 -59.451999664306626 L 71.15361022949219 -59.39199829101561 L 71.2490005493164 -58.72700119018553 L 71.20999908447266 -58.22000122070311 L 71.09300231933594 -57.686000823974595 L 70.97412109375 -57.34400177001952 L 70.89800262451172 -57.124999999999986 L 71.63999938964844 -56.83399963378905 L 71.81087493896484 -57.34400177001952 L 71.83499908447266 -57.41600036621092 L 71.9520034790039 -58.04000091552733 L 71.99099731445312 -58.70700073242186 L 71.94200134277344 -59.33000183105467 L 71.92462158203125 -59.39199829101561 L 71.86663055419922 -59.59887313842772 L 71.79399871826172 -59.85800170898436 L 71.61073303222656 -60.177787780761705 L 71.5469970703125 -60.289001464843736 L 71.31633758544922 -60.51065826416014 L 71.21399688720703 -60.609001159667955 L 70.87837219238281 -60.7665557861328 L 70.80500030517578 -60.800998687744126 L 70.3219985961914 -60.86500167846678 L 69.86599731445312 -60.819999694824205 L 69.63200378417969 -60.74061584472655 L 69.47100067138672 -60.686000823974595 L 69.13600158691406 -60.460998535156236 L 68.84500122070312 -60.133998870849595 L 68.58300018310547 -59.69100189208983 L 68.45752716064453 -59.39199829101561 L 68.3479995727539 -59.131000518798814 L 68.12799835205078 -58.56200027465819 L 67.93468475341797 -58.14608764648436 L 67.93000030517578 -58.13600158691405 L 67.75199890136719 -57.853000640869126 L 67.58399963378906 -57.701625823974595 L 67.55999755859375 -57.68000030517577 L 67.3219985961914 -57.576999664306626 L 67.03600311279297 -57.54199981689452 L 66.42900085449219 -57.71599960327147 L 66.06500244140625 -58.236999511718736 L 65.94300079345703 -59.10400009155272 M 71.15599822998047 -65.3000030517578 L 71.15599822998047 -62.52000045776366 L 71.15599822998047 -62.34799957275389 L 71.89800262451172 -62.34799957275389 L 71.89800262451172 -62.52000045776366 L 71.89800262451172 -65.3000030517578 L 71.89800262451172 -65.53600311279295 L 71.89800262451172 -66.13400268554686 L 69.63200378417969 -66.13400268554686 L 69.29962921142578 -66.13400268554686 L 67.8438491821289 -66.13400268554686 L 66.72943115234375 -66.13400268554686 L 65.53600311279297 -66.13400268554686 L 65.3270034790039 -66.13400268554686 L 65.3270034790039 -65.53600311279295 L 65.3270034790039 -62.34799957275389 L 66.06300354003906 -62.34799957275389 L 66.06300354003906 -65.3000030517578 L 68.38800048828125 -65.3000030517578 L 68.38800048828125 -62.52000045776366 L 69.12899780273438 -62.52000045776366 L 69.12899780273438 -65.3000030517578 L 71.15599822998047 -65.3000030517578 M 66.32599639892578 -69.42700195312499 L 66.28123474121094 -69.63200378417967 L 66.03600311279297 -70.75499725341795 L 66.03600311279297 -71.18499755859374 L 71.18299865722656 -71.18499755859374 L 71.18299865722656 -70.58300018310545 L 70.96531677246094 -69.63200378417967 L 70.9010009765625 -69.35099792480467 L 70.05500030517578 -68.61199951171874 L 69.63200378417969 -68.53784942626952 L 68.64600372314453 -68.36499786376952 L 67.19599914550781 -68.63099670410155 L 66.32599639892578 -69.42700195312499 M 156 -69.10299682617186 L 153.0019989013672 -69.10299682617186 L 152.9980010986328 -69.10299682617186 L 152.9980010986328 11.003000259399412 L 153.0019989013672 11.003000259399412 L 156 11.003000259399412 L 156 31.002000808715813 L 153.0019989013672 31.002000808715813 L 153.0019989013672 40.99999999999999 L 152.9980010986328 40.99999999999999 L 98.99800109863281 40.99999999999999 L 98.99800109863281 31.002000808715813 L 98.89800262451172 31.002000808715813 L 96 31.002000808715813 L 96 11.001000404357908 L 98.89800262451172 11.001000404357908 L 98.89800262451172 -69.00099945068358 L 96 -69.00099945068358 L 96 -89.00199890136717 L 98.89800262451172 -89.00199890136717 L 98.99800109863281 -89.00199890136717 L 98.99800109863281 -98.99999999999997 L 152.9980010986328 -98.99999999999997 L 153.0019989013672 -98.99999999999997 L 153.0019989013672 -89.10199737548827 L 156 -89.10199737548827 L 156 -69.10299682617186 M 21 -88.10299682617186 L 18.99799919128418 -88.10299682617186 L 18.99799919128418 -87.19799804687499 L 18.99799919128418 -86.40299987792967 L 18.99799919128418 -68.09799957275389 L 21 -68.09799957275389 L 21 11.996999740600584 L 18.99799919128418 11.996999740600584 L 18.99799919128418 32.00199890136718 L 21 32.00199890136718 L 21 41.99999999999999 L 18.99799919128418 41.99999999999999 L 12.998000144958496 41.99999999999999 L 4.797999858856201 41.99999999999999 L 3.7019999027252197 41.99999999999999 L 3.7019999027252197 39.99700164794921 L -14.003000259399414 39.99700164794921 L -18.003000259399414 39.99700164794921 L -22.202999114990234 39.99700164794921 L -26.202999114990234 39.99700164794921 L -26.202999114990234 41.99999999999999 L -32.40299987792969 41.99999999999999 L -36.99800109863281 41.99999999999999 L -39 41.99999999999999 L -39 32.00199890136718 L -36.99800109863281 32.00199890136718 L -36.99800109863281 11.996999740600584 L -39 11.996999740600584 L -39 -67.9980010986328 L -36.99800109863281 -67.9980010986328 L -36.99800109863281 -88.00299835205077 L -39 -88.00299835205077 L -39 -97.99999999999997 L -36.99800109863281 -97.99999999999997 L -32.40299987792969 -97.99999999999997 L -26.202999114990234 -97.99999999999997 L -26.202999114990234 -95.9980010986328 L -18.003000259399414 -95.9980010986328 L -14.998000144958496 -95.9980010986328 L 3.7019999027252197 -95.9980010986328 L 3.7019999027252197 -97.99999999999997 L 12.697999954223633 -97.99999999999997 L 15.70300006866455 -97.99999999999997 L 18.99799919128418 -97.99999999999997 L 21 -97.99999999999997 L 21 -88.10299682617186 M -4.060379981994629 -5.2677669525146475 L -3.606882333755493 -5.1159605979919425 L -3.6051547527313232 -5.115702629089355 L -3.592456579208374 -5.113804817199706 L -3.357060670852661 -5.0715293884277335 L -3.273951292037964 -5.066202163696288 L -3.057291269302368 -5.052313804626464 L -2.87858247756958 -5.05999994277954 L -2.8557286262512207 -5.061019420623778 L -2.845144748687744 -5.063292980194091 L -2.315743923187256 -5.162255287170409 L -2.302219867706299 -5.167194366455077 L -2.2258424758911133 -5.196328163146972 L -2.0480000972747803 -5.264164924621581 L -2.022627115249634 -5.27384328842163 L -1.8612128496170044 -5.353589534759521 L -1.8484336137771606 -5.36029291152954 L -1.7293213605880737 -5.435189247131347 L -1.5947824716567993 -5.519785404205321 L -1.3862888813018799 -5.689846992492675 L -1.3747248649597168 -5.698431968688964 L -1.3693935871124268 -5.703331947326659 L -1.1224679946899414 -5.963708877563476 L -1.1143717765808105 -5.9730868339538565 L -1.1130599975585938 -5.97460651397705 L -1.1089831590652466 -5.980604171752929 L -1.0240000486373901 -6.099155426025389 L -0.9918534755706787 -6.14400005340576 L -0.9168232083320618 -6.2486672401428205 L -0.9120799899101257 -6.257016658782957 L -0.7977448105812073 -6.467432022094725 L -0.7908455729484558 -6.485346317291258 L -0.7887287139892578 -6.494754791259764 L -0.5807034969329834 -7.16800022125244 L -0.5773528218269348 -7.178843975067137 L -0.5761768221855164 -7.188369750976561 L -0.5521568059921265 -7.456432819366453 L -0.551960825920105 -7.468506336212156 L -0.5615687966346741 -7.79710006713867 L -0.5622351765632629 -7.804391384124754 L -0.5977848172187805 -8.041708946228026 L -0.5994703769683838 -8.051273345947264 L -0.6405436396598816 -8.19200038909912 L -0.7166879773139954 -8.452887535095213 L -0.720960795879364 -8.466803550720213 L -0.7255472540855408 -8.476721763610838 L -0.882157564163208 -8.800511360168455 L -0.8920360803604126 -8.815799713134764 L -1.0938040018081665 -9.11268615722656 L -1.101095199584961 -9.120840072631834 L -1.1896564960479736 -9.215999603271483 L -1.3460991382598877 -9.38409900665283 L -1.3571144342422485 -9.393664360046385 L -1.493548035621643 -9.509921073913572 L -1.7904350757598877 -9.712649345397947 L -1.7995295524597168 -9.718725204467772 L -1.8092905282974243 -9.723665237426756 L -2.0480000972747803 -9.832067489624022 L -2.217630386352539 -9.90909957885742 L -2.2278223037719727 -9.912980079650877 L -2.4862775802612305 -9.98888301849365 L -2.5041136741638184 -9.992685317993162 L -2.835913896560669 -10.042903900146483 L -2.859609603881836 -10.046490669250487 L -2.87050724029541 -10.0472354888916 L -3.4671638011932373 -10.0174503326416 L -3.4768855571746826 -10.017058372497557 L -3.484098434448242 -10.016157150268553 L -3.4947609901428223 -10.01368713378906 L -3.8425703048706055 -9.924332618713377 L -3.8562512397766113 -9.919315338134764 L -4.0960001945495605 -9.812384605407713 L -4.265552043914795 -9.73676300048828 L -4.27527379989624 -9.731745719909666 L -4.284289836883545 -9.72559070587158 L -4.512959957122803 -9.581471443176268 L -4.602937698364258 -9.508079528808592 L -4.721453666687012 -9.411409378051756 L -4.729842185974121 -9.404393196105955 L -4.734938621520996 -9.39914035797119 L -4.9092607498168945 -9.215999603271483 L -4.981863975524902 -9.139723777770994 L -4.990801811218262 -9.128238677978514 L -5.148448944091797 -8.908320426940916 L -5.182961463928223 -8.860175132751463 L -5.344376087188721 -8.539268493652342 L -5.352398872375488 -8.524155616760252 L -5.353470325469971 -8.522137641906737 L -5.357861042022705 -8.508221626281737 L -5.466254234313965 -8.19200038909912 L -5.474117755889893 -8.16905879974365 L -5.522157669067383 -7.934624195098875 L -5.5246663093566895 -7.920276641845701 L -5.548686504364014 -7.652213573455809 L -5.5489606857299805 -7.637670516967772 L -5.546078205108643 -7.3676857948303205 L -5.544785022735596 -7.356827259063719 L -5.5181989669799805 -7.16800022125244 L -5.5073137283325195 -7.090685844421385 L -5.503785610198975 -7.076534271240233 L -5.410587787628174 -6.729685783386229 L -5.405021667480469 -6.716239929199217 L -5.3031768798828125 -6.467392921447752 L -5.299450397491455 -6.461233139038084 L -5.107524394989014 -6.14400005340576 L -5.0706634521484375 -6.083073139190672 L -5.065253734588623 -6.073547363281248 L -5.058707237243652 -6.06480550765991 L -4.824272155761719 -5.7928991317749015 L -4.816902160644531 -5.7848238945007315 L -4.54499626159668 -5.551349639892577 L -4.533784866333008 -5.542059421539306 L -4.360840797424316 -5.42292022705078 L -4.343984603881836 -5.413237571716308 L -4.0960001945495605 -5.282955646514892 L -4.078804016113281 -5.273921489715575 L -4.060379981994629 -5.2677669525146475 M -4.060379981994629 1.7342720031738277 L -3.606882333755493 1.887039184570312 L -3.599949598312378 1.8880753517150874 L -3.592456579208374 1.8891952037811275 L -3.357060670852661 1.9305095672607417 L -3.285207748413086 1.9351155757904048 L -3.057291269302368 1.9497256278991695 L -2.87858247756958 1.942999958992004 L -2.8557286262512207 1.9419808387756343 L -2.845144748687744 1.9397071599960323 L -2.315743923187256 1.8397840261459346 L -2.302219867706299 1.8348056077957149 L -2.2318437099456787 1.8079611063003536 L -2.0480000972747803 1.737835049629211 L -2.022627115249634 1.7281568050384517 L -1.8612128496170044 1.6493712663650508 L -1.8484336137771606 1.642707228660583 L -1.737780213356018 1.5731296539306636 L -1.5947824716567993 1.4832143783569336 L -1.3862888813018799 1.3121920824050903 L -1.3747248649597168 1.3036072254180908 L -1.3693935871124268 1.298707127571106 L -1.1224679946899414 1.039291262626648 L -1.1142266988754272 1.0297106504440308 L -1.1130599975585938 1.0283544063568115 L -1.1100807189941406 1.0240000486373901 L -1.1089831590652466 1.0223959684371948 L -0.9168232083320618 0.7543328404426574 L -0.9120799899101257 0.7459831237792969 L -0.7977448105812073 0.5355679988861084 L -0.7908455729484558 0.5176142454147339 L -0.7887287139892578 0.5082454085350037 L -0.6316866278648376 1.1102230246251565e-16 L -0.5773528218269348 -0.17584398388862596 L -0.5761768221855164 -0.18540886044502244 L -0.5521568059921265 -0.4534719586372373 L -0.551960825920105 -0.4655456542968748 L -0.5615687966346741 -0.7941391468048092 L -0.5622351765632629 -0.801391243934631 L -0.5955814719200134 -1.0240000486373897 L -0.5977848172187805 -1.0387086868286128 L -0.5994703769683838 -1.0482735633850093 L -0.7166879773139954 -1.449887871742248 L -0.720960795879364 -1.4638040065765376 L -0.7255472540855408 -1.4737216234207149 L -0.882157564163208 -1.797511219978332 L -0.8920360803604126 -1.8127993345260616 L -1.051881194114685 -2.04800009727478 L -1.0938040018081665 -2.109686374664306 L -1.101095199584961 -2.1178400516510005 L -1.3460991382598877 -2.3810992240905757 L -1.3571144342422485 -2.390664100646972 L -1.493548035621643 -2.5069208145141597 L -1.7904350757598877 -2.709649562835693 L -1.7995295524597168 -2.715764760971069 L -1.8092905282974243 -2.720664739608764 L -2.0480000972747803 -2.82906699180603 L -2.217630386352539 -2.9060990810394283 L -2.2278223037719727 -2.910019159317016 L -2.4862775802612305 -2.9859223365783687 L -2.5041136741638184 -2.9896855354309078 L -2.859609603881836 -3.0434904098510733 L -2.87050724029541 -3.0442743301391593 L -3.072000026702881 -3.0342159271240225 L -3.4671638011932373 -3.0144896507263175 L -3.4768855571746826 -3.0140583515167227 L -3.484098434448242 -3.0131568908691397 L -3.4947609901428223 -3.0106871128082267 L -3.8425703048706055 -2.922293663024902 L -3.8562512397766113 -2.9172759056091304 L -4.0960001945495605 -2.809782981872558 L -4.265552043914795 -2.733763217926025 L -4.27527379989624 -2.7287456989288326 L -4.284289836883545 -2.722591161727905 L -4.512959957122803 -2.5794320106506343 L -4.606904983520508 -2.5023710727691646 L -4.721453666687012 -2.4084095954895015 L -4.729842185974121 -2.4013926982879634 L -4.734938621520996 -2.3961791992187496 L -4.981863975524902 -2.1367633342742915 L -4.990801811218262 -2.125238418579101 L -5.046169757843018 -2.04800009727478 L -5.148448944091797 -1.9053206443786617 L -5.182961463928223 -1.857175230979919 L -5.344376087188721 -1.5362681150436397 L -5.352398872375488 -1.5211559534072872 L -5.353470325469971 -1.5191376209259029 L -5.357861042022705 -1.5052214860916133 L -5.474117755889893 -1.1660591363906856 L -5.503228187561035 -1.0240000486373897 L -5.522157669067383 -0.9316240549087521 L -5.5246663093566895 -0.9173159599304196 L -5.548686504364014 -0.6492528319358823 L -5.5489606857299805 -0.6346703171730039 L -5.546078205108643 -0.3656464219093321 L -5.544785022735596 -0.35478791594505293 L -5.5073137283325195 -0.08768561482429492 L -5.503785610198975 -0.07357349991798388 L -5.484016418457031 1.1102230246251565e-16 L -5.410587787628174 0.27327519655227667 L -5.405021667480469 0.28676009178161627 L -5.33852481842041 0.44923827052116394 L -5.3031768798828125 0.5356072187423706 L -5.0706634521484375 0.9189662933349608 L -5.065253734588623 0.9284527897834777 L -5.058707237243652 0.9372336268424987 L -4.983898162841797 1.0240000486373901 L -4.824272155761719 1.2091399431228638 L -4.816902160644531 1.2171759605407715 L -4.54499626159668 1.4516111612319946 L -4.533784866333008 1.4609408378601074 L -4.360840797424316 1.5800799131393428 L -4.343984603881836 1.589762449264526 L -4.0960001945495605 1.7191457748413081 L -4.078804016113281 1.7281175851821895 L -4.060379981994629 1.7342720031738277 M -45 -88.00299835205077 L -47.00299835205078 -88.00299835205077 L -47.00299835205078 -76.0970001220703 L -47.00299835205078 -67.9980010986328 L -45 -67.9980010986328 L -45 11.996999740600584 L -47.00299835205078 11.996999740600584 L -47.00299835205078 32.00199890136718 L -45 32.00199890136718 L -45 41.99999999999999 L -47.00299835205078 41.99999999999999 L -57.702999114990234 41.99999999999999 L -57.79800033569336 41.99999999999999 L -57.79800033569336 39.99700164794921 L -64.802001953125 39.99700164794921 L -65.00299835205078 39.99700164794921 L -85.3030014038086 39.99700164794921 L -87.7030029296875 39.99700164794921 L -87.7030029296875 41.99999999999999 L -88.50299835205078 41.99999999999999 L -100.7030029296875 41.99999999999999 L -102.99800109863281 41.99999999999999 L -105 41.99999999999999 L -105 32.00199890136718 L -102.99800109863281 32.00199890136718 L -102.99800109863281 11.996999740600584 L -105 11.996999740600584 L -105 -68.09799957275389 L -102.99800109863281 -68.09799957275389 L -102.99800109863281 -88.10299682617186 L -105 -88.10299682617186 L -105 -97.99999999999997 L -102.99800109863281 -97.99999999999997 L -100.7030029296875 -97.99999999999997 L -97.697998046875 -97.99999999999997 L -87.7030029296875 -97.99999999999997 L -87.7030029296875 -95.9980010986328 L -85.49800109863281 -95.9980010986328 L -85.3030014038086 -95.9980010986328 L -82.2979965209961 -95.9980010986328 L -57.79800033569336 -95.9980010986328 L -57.79800033569336 -97.99999999999997 L -57.702999114990234 -97.99999999999997 L -54.698001861572266 -97.99999999999997 L -52.50299835205078 -97.99999999999997 L -49.49800109863281 -97.99999999999997 L -47.00299835205078 -97.99999999999997 L -45 -97.99999999999997 L -45 -88.00299835205077 M 27 93.20099639892577 L 24.996999740600586 93.20099639892577 L 24.996999740600586 104.00099945068357 L -3.4079999923706055 104.00099945068357 L -7.002999782562256 104.00099945068357 L -9.407999992370605 104.00099945068357 L -13.003000259399414 104.00099945068357 L -14.998000144958496 104.00099945068357 L -18.591999053955078 104.00099945068357 L -20.99799919128418 104.00099945068357 L -24.591999053955078 104.00099945068357 L -30.99799919128418 104.00099945068357 L -30.99799919128418 93.20099639892577 L -33 93.20099639892577 L -33 63.30599975585936 L -30.99799919128418 63.30599975585936 L -30.99799919128418 48.006000518798814 L -24.591999053955078 48.006000518798814 L -20.99799919128418 48.006000518798814 L -18.591999053955078 48.006000518798814 L -14.998000144958496 48.006000518798814 L -13.003000259399414 48.006000518798814 L -9.407999992370605 48.006000518798814 L -7.002999782562256 48.006000518798814 L -3.4079999923706055 48.006000518798814 L 24.996999740600586 48.006000518798814 L 24.996999740600586 63.30599975585936 L 27 63.30599975585936 L 27 93.20099639892577 M -39 94.20099639892577 L -41.00299835205078 94.20099639892577 L -41.00299835205078 105.00099945068357 L -45.198001861572266 105.00099945068357 L -59.20199966430664 105.00099945068357 L -96.99800109863281 105.00099945068357 L -96.99800109863281 94.20099639892577 L -99 94.20099639892577 L -99 64.30599975585936 L -96.99800109863281 64.30599975585936 L -96.99800109863281 49.006000518798814 L -59.20199966430664 49.006000518798814 L -45.198001861572266 49.006000518798814 L -41.00299835205078 49.006000518798814 L -41.00299835205078 64.30599975585936 L -39 64.30599975585936 L -39 94.20099639892577 M 65.88201141357422 -29.40626907348632 L 66.21299743652344 -29.128999710083 L 66.67900085449219 -28.937000274658196 L 67.22799682617188 -28.872999191284173 L 67.58399963378906 -28.95232391357421 L 67.9729995727539 -29.03899955749511 L 68.07482147216797 -29.138238906860344 L 68.48500061035156 -29.538000106811516 L 68.76499938964844 -30.368999481201165 L 68.81099700927734 -30.368999481201165 L 68.89800262451172 -29.99500083923339 L 68.91604614257812 -29.958099365234368 L 69.0530014038086 -29.677999496459954 L 69.2750015258789 -29.41600036621093 L 69.36654663085938 -29.349508285522454 L 69.54900360107422 -29.21699905395507 L 69.63200378417969 -29.185939788818352 L 69.79735565185547 -29.12406158447265 L 69.86699676513672 -29.0979995727539 L 70.22899627685547 -29.058000564575188 L 70.34422302246094 -29.07140350341796 L 70.76119995117188 -29.119907379150384 L 70.76200103759766 -29.12000083923339 L 71.18599700927734 -29.305000305175774 L 71.5009994506836 -29.614000320434563 L 71.72200012207031 -30.059999465942376 L 71.85399627685547 -30.656000137329094 L 71.85777282714844 -30.719999313354485 L 71.89800262451172 -31.402000427246087 L 71.89800262451172 -32.76800155639648 L 71.89800262451172 -33.3740005493164 L 65.3270034790039 -33.3740005493164 L 65.3270034790039 -32.76800155639648 L 65.3270034790039 -31.010999679565423 L 65.38300323486328 -30.399000167846673 L 65.53600311279297 -29.92451858520507 L 65.5510025024414 -29.878000259399407 L 65.83100128173828 -29.44899940490722 L 65.88201141357422 -29.40626907348632 M 69.61299896240234 -67.56600189208983 L 69.63200378417969 -67.57237243652342 L 70.40299987792969 -67.83100128173827 L 70.58120727539062 -67.95388031005858 L 71.04399871826172 -68.2730026245117 L 71.51799774169922 -68.8720016479492 L 71.8030014038086 -69.61100006103514 L 71.80526733398438 -69.63200378417967 L 71.89800262451172 -70.48999786376952 L 71.89800262451172 -72.0189971923828 L 71.5116958618164 -72.0189971923828 L 66.03600311279297 -72.0189971923828 L 65.75997924804688 -72.0189971923828 L 65.53600311279297 -72.0189971923828 L 65.3270034790039 -72.0189971923828 L 65.3270034790039 -70.6689987182617 L 65.4229965209961 -69.7210006713867 L 65.53600311279297 -69.41074371337889 L 65.70999908447266 -68.93299865722655 L 65.73605346679688 -68.89882659912108 L 66.18800354003906 -68.30599975585936 L 66.61383056640625 -68.00875854492186 L 66.84700012207031 -67.8460006713867 L 67.67500305175781 -67.5699996948242 L 68.6719970703125 -67.47799682617186 L 69.61299896240234 -67.56600189208983 M -25.277000427246094 -71.70700073242186 L -24.576000213623047 -71.84667968749999 L -24.4689998626709 -71.8679962158203 L -23.687999725341797 -72.13300323486327 L -22.948999404907227 -72.4970016479492 L -22.26300048828125 -72.95500183105467 L -21.64299964904785 -73.49900054931639 L -21.442440032958984 -73.72799682617186 L -21.100000381469727 -74.11900329589842 L -20.642000198364258 -74.80400085449217 L -20.277000427246094 -75.5439987182617 L -20.011999130249023 -76.32399749755858 L -19.85099983215332 -77.13300323486327 L -19.79800033569336 -77.95600128173827 L -19.85099983215332 -78.77799987792967 L -20.011999130249023 -79.58699798583983 L -20.277000427246094 -80.3669967651367 L -20.642000198364258 -81.10700225830077 L -21.100000381469727 -81.79199981689452 L -21.21210289001465 -81.9199981689453 L -21.64299964904785 -82.41200256347655 L -22.26300048828125 -82.95600128173827 L -22.948999404907227 -83.41400146484374 L -23.687999725341797 -83.77799987792967 L -24.4689998626709 -84.04299926757811 L -25.277000427246094 -84.20400238037108 L -26.100000381469727 -84.25800323486327 L -26.202999114990234 -84.25124359130858 L -26.92300033569336 -84.20400238037108 L -27.731000900268555 -84.04299926757811 L -28.511999130249023 -83.77799987792967 L -29.250999450683594 -83.41400146484374 L -29.937000274658203 -82.95600128173827 L -30.55699920654297 -82.41200256347655 L -30.987895965576172 -81.9199981689453 L -31.100000381469727 -81.79199981689452 L -31.558000564575195 -81.10700225830077 L -31.92300033569336 -80.3669967651367 L -32.1879997253418 -79.58699798583983 L -32.3489990234375 -78.77799987792967 L -32.40299987792969 -77.95600128173827 L -32.3489990234375 -77.13300323486327 L -32.1879997253418 -76.32399749755858 L -31.92300033569336 -75.5439987182617 L -31.558000564575195 -74.80400085449217 L -31.100000381469727 -74.11900329589842 L -30.757558822631836 -73.72799682617186 L -30.55699920654297 -73.49900054931639 L -29.937000274658203 -72.95500183105467 L -29.250999450683594 -72.4970016479492 L -28.511999130249023 -72.13300323486327 L -27.731000900268555 -71.8679962158203 L -26.92300033569336 -71.70700073242186 L -26.202999114990234 -71.65975952148436 L -26.100000381469727 -71.65299987792967 L -25.277000427246094 -71.70700073242186 M -16.695999145507812 -87.20999908447264 L -16.5 -87.19799804687499 L -16.384000778198242 -87.20510101318358 L -16.304000854492188 -87.20999908447264 L -16.111000061035156 -87.24900054931639 L -15.925000190734863 -87.31199645996092 L -15.74899959564209 -87.3990020751953 L -15.585000038146973 -87.50800323486327 L -15.437999725341797 -87.63800048828124 L -15.307999610900879 -87.78500366210936 L -15.199000358581543 -87.94899749755858 L -15.1421537399292 -88.06400299072264 L -15.112000465393066 -88.12499999999999 L -15.048999786376953 -88.31099700927733 L -15.010000228881836 -88.50399780273436 L -14.998000144958496 -88.69999694824217 L -15.010000228881836 -88.89600372314452 L -15.048999786376953 -89.08899688720702 L -15.112000465393066 -89.27500152587889 L -15.199000358581543 -89.45099639892577 L -15.307999610900879 -89.61499786376952 L -15.437999725341797 -89.76200103759764 L -15.585000038146973 -89.89199829101561 L -15.74899959564209 -90.00099945068358 L -15.925000190734863 -90.08799743652342 L -15.995857238769531 -90.11199951171874 L -16.111000061035156 -90.15100097656249 L -16.304000854492188 -90.19000244140624 L -16.5 -90.20300292968749 L -16.695999145507812 -90.19000244140624 L -16.888999938964844 -90.15100097656249 L -17.00414276123047 -90.11199951171874 L -17.075000762939453 -90.08799743652342 L -17.250999450683594 -90.00099945068358 L -17.415000915527344 -89.89199829101561 L -17.562000274658203 -89.76200103759764 L -17.691999435424805 -89.61499786376952 L -17.801000595092773 -89.45099639892577 L -17.88800048828125 -89.27500152587889 L -17.951000213623047 -89.08899688720702 L -17.989999771118164 -88.89600372314452 L -18.003000259399414 -88.69999694824217 L -17.989999771118164 -88.50399780273436 L -17.951000213623047 -88.31099700927733 L -17.88800048828125 -88.12499999999999 L -17.857847213745117 -88.06400299072264 L -17.801000595092773 -87.94899749755858 L -17.691999435424805 -87.78500366210936 L -17.562000274658203 -87.63800048828124 L -17.415000915527344 -87.50800323486327 L -17.250999450683594 -87.3990020751953 L -17.075000762939453 -87.31199645996092 L -16.888999938964844 -87.24900054931639 L -16.695999145507812 -87.20999908447264 M -16.695999145507812 -12.210000038146969 L -16.5 -12.19799995422363 L -16.304000854492188 -12.210000038146969 L -16.111000061035156 -12.248999595642086 L -15.995857238769531 -12.28800010681152 L -15.925000190734863 -12.3120002746582 L -15.74899959564209 -12.399000167846676 L -15.585000038146973 -12.508000373840328 L -15.437999725341797 -12.63799953460693 L -15.307999610900879 -12.784999847412106 L -15.199000358581543 -12.94900035858154 L -15.112000465393066 -13.124999999999996 L -15.048999786376953 -13.31099987030029 L -15.010000228881836 -13.503999710083004 L -14.998000144958496 -13.699999809265133 L -15.010000228881836 -13.895999908447262 L -15.048999786376953 -14.088999748229977 L -15.112000465393066 -14.27499961853027 L -15.1421537399292 -14.33600044250488 L -15.199000358581543 -14.451000213623043 L -15.307999610900879 -14.61499977111816 L -15.437999725341797 -14.762000083923336 L -15.585000038146973 -14.892000198364254 L -15.74899959564209 -15.001000404357907 L -15.925000190734863 -15.088000297546383 L -16.111000061035156 -15.15100002288818 L -16.304000854492188 -15.189999580383297 L -16.384000778198242 -15.195305824279782 L -16.5 -15.203000068664547 L -16.695999145507812 -15.189999580383297 L -16.888999938964844 -15.15100002288818 L -17.075000762939453 -15.088000297546383 L -17.250999450683594 -15.001000404357907 L -17.415000915527344 -14.892000198364254 L -17.562000274658203 -14.762000083923336 L -17.691999435424805 -14.61499977111816 L -17.801000595092773 -14.451000213623043 L -17.857847213745117 -14.33600044250488 L -17.88800048828125 -14.27499961853027 L -17.951000213623047 -14.088999748229977 L -17.989999771118164 -13.895999908447262 L -18.003000259399414 -13.699999809265133 L -17.989999771118164 -13.503999710083004 L -17.951000213623047 -13.31099987030029 L -17.88800048828125 -13.124999999999996 L -17.801000595092773 -12.94900035858154 L -17.691999435424805 -12.784999847412106 L -17.562000274658203 -12.63799953460693 L -17.415000915527344 -12.508000373840328 L -17.250999450683594 -12.399000167846676 L -17.075000762939453 -12.3120002746582 L -17.00414276123047 -12.28800010681152 L -16.888999938964844 -12.248999595642086 L -16.695999145507812 -12.210000038146969 M -0.1720000058412552 22.85400009155273 L 0 22.76910018920898 L 1.0010000467300415 22.27499961853027 L 2.0889999866485596 21.548000335693356 L 3.072999954223633 20.68499946594238 L 3.7019999027252197 19.968538284301754 L 3.936000108718872 19.701999664306637 L 4.6620001792907715 18.614000320434567 L 5.241000175476074 17.440000534057614 L 5.599818229675293 16.38400077819824 L 5.6620001792907715 16.201000213623043 L 5.916999816894531 14.918000221252438 L 6.002999782562256 13.612999916076657 L 5.916999816894531 12.307000160217282 L 5.6620001792907715 11.024000167846678 L 5.241000175476074 9.784999847412108 L 4.6620001792907715 8.611000061035154 L 3.936000108718872 7.522999763488768 L 3.7019999027252197 7.256462574005125 L 3.072999954223633 6.539999961853026 L 2.0889999866485596 5.677000045776366 L 1.0010000467300415 4.949999809265136 L 0 4.455900192260741 L -0.1720000058412552 4.370999813079833 L -1.4110000133514404 3.950999975204467 L -2.694000005722046 3.696000099182128 L -4 3.6099998950958243 L -5.306000232696533 3.696000099182128 L -6.589000225067139 3.950999975204467 L -7.828000068664551 4.370999813079833 L -8.192000389099121 4.550672531127929 L -9.00100040435791 4.949999809265136 L -10.08899974822998 5.677000045776366 L -11.072999954223633 6.539999961853026 L -11.935999870300293 7.522999763488768 L -12.661999702453613 8.611000061035154 L -13.241000175476074 9.784999847412108 L -13.661999702453613 11.024000167846678 L -13.916999816894531 12.307000160217282 L -14.003000259399414 13.612999916076657 L -13.916999816894531 14.918000221252438 L -13.661999702453613 16.201000213623043 L -13.599818229675293 16.38400077819824 L -13.241000175476074 17.440000534057614 L -12.661999702453613 18.614000320434567 L -11.935999870300293 19.701999664306637 L -11.072999954223633 20.68499946594238 L -10.08899974822998 21.548000335693356 L -9.00100040435791 22.27499961853027 L -7.828000068664551 22.85400009155273 L -6.589000225067139 23.274000167846676 L -5.306000232696533 23.528999328613278 L -4 23.61499977111816 L -2.694000005722046 23.528999328613278 L -1.4110000133514404 23.274000167846676 L -0.1720000058412552 22.85400009155273 M -20.895999908447266 23.690000534057614 L -20.700000762939453 23.70299911499023 L -20.503999710083008 23.690000534057614 L -20.479999542236328 23.68515014648437 L -20.31100082397461 23.650999069213864 L -20.125 23.587999343872067 L -19.948999404907227 23.50099945068359 L -19.78499984741211 23.392000198364254 L -19.63800048828125 23.26199913024902 L -19.507999420166016 23.11499977111816 L -19.39900016784668 22.951000213623043 L -19.312000274658203 22.77499961853027 L -19.249000549316406 22.589000701904293 L -19.23667335510254 22.527999877929684 L -19.209999084472656 22.395999908447262 L -19.197999954223633 22.20000076293945 L -19.209999084472656 22.003999710083004 L -19.249000549316406 21.811000823974606 L -19.312000274658203 21.624999999999996 L -19.39900016784668 21.448999404907223 L -19.507999420166016 21.284999847412106 L -19.63800048828125 21.138000488281246 L -19.78499984741211 21.007999420166012 L -19.948999404907227 20.899000167846676 L -20.125 20.8120002746582 L -20.31100082397461 20.749000549316403 L -20.479999542236328 20.714849472045895 L -20.503999710083008 20.709999084472653 L -20.700000762939453 20.697000503540036 L -20.895999908447266 20.709999084472653 L -21.089000701904297 20.749000549316403 L -21.274999618530273 20.8120002746582 L -21.451000213623047 20.899000167846676 L -21.614999771118164 21.007999420166012 L -21.761999130249023 21.138000488281246 L -21.892000198364258 21.284999847412106 L -22.000999450683594 21.448999404907223 L -22.028186798095703 21.503999710083004 L -22.08799934387207 21.624999999999996 L -22.150999069213867 21.811000823974606 L -22.190000534057617 22.003999710083004 L -22.202999114990234 22.20000076293945 L -22.190000534057617 22.395999908447262 L -22.163326263427734 22.527999877929684 L -22.150999069213867 22.589000701904293 L -22.08799934387207 22.77499961853027 L -22.000999450683594 22.951000213623043 L -21.892000198364258 23.11499977111816 L -21.761999130249023 23.26199913024902 L -21.614999771118164 23.392000198364254 L -21.451000213623047 23.50099945068359 L -21.274999618530273 23.587999343872067 L -21.089000701904297 23.650999069213864 L -20.895999908447266 23.690000534057614 M -20.895999908447266 6.690000057220457 L -20.700000762939453 6.702000141143797 L -20.503999710083008 6.690000057220457 L -20.479999542236328 6.685150146484373 L -20.31100082397461 6.651000022888182 L -20.125 6.587999820709227 L -19.948999404907227 6.50099992752075 L -19.78499984741211 6.392000198364256 L -19.63800048828125 6.262000083923338 L -19.533645629882812 6.14400005340576 L -19.507999420166016 6.114999771118162 L -19.39900016784668 5.951000213623046 L -19.312000274658203 5.775000095367431 L -19.249000549316406 5.589000225067138 L -19.209999084472656 5.395999908447265 L -19.197999954223633 5.199999809265136 L -19.209999084472656 5.004000186920165 L -19.249000549316406 4.810999870300292 L -19.312000274658203 4.624999999999999 L -19.39900016784668 4.448999881744384 L -19.507999420166016 4.2849998474121085 L -19.63800048828125 4.138000011444091 L -19.68549156188965 4.09600019454956 L -19.78499984741211 4.007999897003173 L -19.948999404907227 3.8989999294280997 L -20.125 3.812000036239623 L -20.31100082397461 3.749000072479247 L -20.503999710083008 3.7100000381469718 L -20.700000762939453 3.69700002670288 L -20.895999908447266 3.7100000381469718 L -21.089000701904297 3.749000072479247 L -21.274999618530273 3.812000036239623 L -21.451000213623047 3.8989999294280997 L -21.614999771118164 4.007999897003173 L -21.714508056640625 4.09600019454956 L -21.761999130249023 4.138000011444091 L -21.892000198364258 4.2849998474121085 L -22.000999450683594 4.448999881744384 L -22.08799934387207 4.624999999999999 L -22.150999069213867 4.810999870300292 L -22.190000534057617 5.004000186920165 L -22.202999114990234 5.199999809265136 L -22.190000534057617 5.395999908447265 L -22.150999069213867 5.589000225067138 L -22.08799934387207 5.775000095367431 L -22.000999450683594 5.951000213623046 L -21.892000198364258 6.114999771118162 L -21.86635398864746 6.14400005340576 L -21.761999130249023 6.262000083923338 L -21.614999771118164 6.392000198364256 L -21.451000213623047 6.50099992752075 L -21.274999618530273 6.587999820709227 L -21.089000701904297 6.651000022888182 L -20.895999908447266 6.690000057220457 M 10.503000259399414 -15.69799995422363 L 10.503000259399414 -86.40299987792967 L 3.7019999027252197 -86.40299987792967 L -14.20300006866455 -86.40299987792967 L -14.20300006866455 -71.65299987792967 L -14.20300006866455 -66.00199890136717 L -14.20300006866455 -65.80599975585936 L -14.20300006866455 -65.30500030517577 L -14.20300006866455 -64.95200347900389 L -14.20300006866455 -60.681999206542955 L -14.20300006866455 -60.18099975585936 L -14.20300006866455 -59.997001647949205 L -14.20300006866455 -15.69799995422363 L 3.7019999027252197 -15.69799995422363 L 6.002999782562256 -15.69799995422363 L 7.802999973297119 -15.69799995422363 L 10.503000259399414 -15.69799995422363 M 14.003999710083008 -87.20999908447264 L 14.199999809265137 -87.19799804687499 L 14.336000442504883 -87.20632934570311 L 14.395999908447266 -87.20999908447264 L 14.58899974822998 -87.24900054931639 L 14.774999618530273 -87.31199645996092 L 14.951000213623047 -87.3990020751953 L 15.114999771118164 -87.50800323486327 L 15.26200008392334 -87.63800048828124 L 15.392000198364258 -87.78500366210936 L 15.50100040435791 -87.94899749755858 L 15.557847023010254 -88.06400299072264 L 15.588000297546387 -88.12499999999999 L 15.651000022888184 -88.31099700927733 L 15.6899995803833 -88.50399780273436 L 15.70300006866455 -88.69999694824217 L 15.6899995803833 -88.89600372314452 L 15.651000022888184 -89.08899688720702 L 15.588000297546387 -89.27500152587889 L 15.50100040435791 -89.45099639892577 L 15.392000198364258 -89.61499786376952 L 15.26200008392334 -89.76200103759764 L 15.114999771118164 -89.89199829101561 L 14.951000213623047 -90.00099945068358 L 14.774999618530273 -90.08799743652342 L 14.704142570495605 -90.11199951171874 L 14.58899974822998 -90.15100097656249 L 14.395999908447266 -90.19000244140624 L 14.199999809265137 -90.20300292968749 L 14.003999710083008 -90.19000244140624 L 13.810999870300293 -90.15100097656249 L 13.695857048034668 -90.11199951171874 L 13.625 -90.08799743652342 L 13.449000358581543 -90.00099945068358 L 13.28499984741211 -89.89199829101561 L 13.137999534606934 -89.76200103759764 L 13.008000373840332 -89.61499786376952 L 12.89900016784668 -89.45099639892577 L 12.812000274658203 -89.27500152587889 L 12.74899959564209 -89.08899688720702 L 12.710000038146973 -88.89600372314452 L 12.697999954223633 -88.69999694824217 L 12.710000038146973 -88.50399780273436 L 12.74899959564209 -88.31099700927733 L 12.812000274658203 -88.12499999999999 L 12.842153549194336 -88.06400299072264 L 12.89900016784668 -87.94899749755858 L 13.008000373840332 -87.78500366210936 L 13.137999534606934 -87.63800048828124 L 13.28499984741211 -87.50800323486327 L 13.449000358581543 -87.3990020751953 L 13.625 -87.31199645996092 L 13.810999870300293 -87.24900054931639 L 14.003999710083008 -87.20999908447264 M 14.696000099182129 -12.210000038146969 L 14.888999938964844 -12.248999595642086 L 15.004142761230469 -12.28800010681152 L 15.074999809265137 -12.3120002746582 L 15.25100040435791 -12.399000167846676 L 15.414999961853027 -12.508000373840328 L 15.562000274658203 -12.63799953460693 L 15.692000389099121 -12.784999847412106 L 15.800999641418457 -12.94900035858154 L 15.887999534606934 -13.124999999999996 L 15.951000213623047 -13.31099987030029 L 15.989999771118164 -13.503999710083004 L 16.003000259399414 -13.699999809265133 L 15.989999771118164 -13.895999908447262 L 15.951000213623047 -14.088999748229977 L 15.887999534606934 -14.27499961853027 L 15.8578462600708 -14.33600044250488 L 15.800999641418457 -14.451000213623043 L 15.692000389099121 -14.61499977111816 L 15.562000274658203 -14.762000083923336 L 15.414999961853027 -14.892000198364254 L 15.25100040435791 -15.001000404357907 L 15.074999809265137 -15.088000297546383 L 14.888999938964844 -15.15100002288818 L 14.696000099182129 -15.189999580383297 L 14.5 -15.203000068664547 L 14.336000442504883 -15.192122459411618 L 14.303999900817871 -15.189999580383297 L 14.111000061035156 -15.15100002288818 L 13.925000190734863 -15.088000297546383 L 13.74899959564209 -15.001000404357907 L 13.585000038146973 -14.892000198364254 L 13.437999725341797 -14.762000083923336 L 13.307999610900879 -14.61499977111816 L 13.199000358581543 -14.451000213623043 L 13.1421537399292 -14.33600044250488 L 13.112000465393066 -14.27499961853027 L 13.048999786376953 -14.088999748229977 L 13.010000228881836 -13.895999908447262 L 12.998000144958496 -13.699999809265133 L 13.010000228881836 -13.503999710083004 L 13.048999786376953 -13.31099987030029 L 13.112000465393066 -13.124999999999996 L 13.199000358581543 -12.94900035858154 L 13.307999610900879 -12.784999847412106 L 13.437999725341797 -12.63799953460693 L 13.585000038146973 -12.508000373840328 L 13.74899959564209 -12.399000167846676 L 13.925000190734863 -12.3120002746582 L 13.995857238769531 -12.28800010681152 L 14.111000061035156 -12.248999595642086 L 14.303999900817871 -12.210000038146969 L 14.5 -12.19799995422363 L 14.696000099182129 -12.210000038146969 M 4.848999977111816 22.589000701904293 L 4.9120001792907715 22.77499961853027 L 4.999000072479248 22.951000213623043 L 5.107999801635742 23.11499977111816 L 5.23799991607666 23.26199913024902 L 5.385000228881836 23.392000198364254 L 5.548999786376953 23.50099945068359 L 5.724999904632568 23.587999343872067 L 5.804714202880859 23.61499977111816 L 5.910999774932861 23.650999069213864 L 6.104000091552734 23.690000534057614 L 6.144000053405762 23.692653656005856 L 6.300000190734863 23.70299911499023 L 6.495999813079834 23.690000534057614 L 6.689000129699707 23.650999069213864 L 6.795285701751709 23.61499977111816 L 6.875 23.587999343872067 L 7.051000118255615 23.50099945068359 L 7.215000152587891 23.392000198364254 L 7.361999988555908 23.26199913024902 L 7.492000102996826 23.11499977111816 L 7.60099983215332 22.951000213623043 L 7.688000202178955 22.77499961853027 L 7.750999927520752 22.589000701904293 L 7.763326644897461 22.527999877929684 L 7.789999961853027 22.395999908447262 L 7.802999973297119 22.20000076293945 L 7.789999961853027 22.003999710083004 L 7.750999927520752 21.811000823974606 L 7.688000202178955 21.624999999999996 L 7.628187656402588 21.503999710083004 L 7.60099983215332 21.448999404907223 L 7.492000102996826 21.284999847412106 L 7.361999988555908 21.138000488281246 L 7.215000152587891 21.007999420166012 L 7.051000118255615 20.899000167846676 L 6.875 20.8120002746582 L 6.689000129699707 20.749000549316403 L 6.495999813079834 20.709999084472653 L 6.300000190734863 20.697000503540036 L 6.144000053405762 20.707347869873043 L 6.104000091552734 20.709999084472653 L 6.002999782562256 20.73040962219238 L 5.910999774932861 20.749000549316403 L 5.724999904632568 20.8120002746582 L 5.548999786376953 20.899000167846676 L 5.385000228881836 21.007999420166012 L 5.23799991607666 21.138000488281246 L 5.107999801635742 21.284999847412106 L 4.999000072479248 21.448999404907223 L 4.9120001792907715 21.624999999999996 L 4.848999977111816 21.811000823974606 L 4.809999942779541 22.003999710083004 L 4.797999858856201 22.20000076293945 L 4.809999942779541 22.395999908447262 L 4.836673736572266 22.527999877929684 L 4.848999977111816 22.589000701904293 M 5.23799991607666 6.262000083923338 L 5.385000228881836 6.392000198364256 L 5.534019947052002 6.491043567657469 L 5.548999786376953 6.50099992752075 L 5.724999904632568 6.587999820709227 L 5.910999774932861 6.651000022888182 L 6.002999782562256 6.669590473175047 L 6.104000091552734 6.690000057220457 L 6.144000053405762 6.6924490928649885 L 6.300000190734863 6.702000141143797 L 6.495999813079834 6.690000057220457 L 6.689000129699707 6.651000022888182 L 6.875 6.587999820709227 L 7.051000118255615 6.50099992752075 L 7.215000152587891 6.392000198364256 L 7.361999988555908 6.262000083923338 L 7.466353893280029 6.14400005340576 L 7.492000102996826 6.114999771118162 L 7.60099983215332 5.951000213623046 L 7.688000202178955 5.775000095367431 L 7.750999927520752 5.589000225067138 L 7.789999961853027 5.395999908447265 L 7.802999973297119 5.199999809265136 L 7.789999961853027 5.004000186920165 L 7.750999927520752 4.810999870300292 L 7.688000202178955 4.624999999999999 L 7.60099983215332 4.448999881744384 L 7.492000102996826 4.2849998474121085 L 7.361999988555908 4.138000011444091 L 7.314507484436035 4.09600019454956 L 7.215000152587891 4.007999897003173 L 7.051000118255615 3.8989999294280997 L 6.875 3.812000036239623 L 6.689000129699707 3.749000072479247 L 6.495999813079834 3.7100000381469718 L 6.300000190734863 3.69700002670288 L 6.104000091552734 3.7100000381469718 L 6.002999782562256 3.730409383773803 L 5.910999774932861 3.749000072479247 L 5.724999904632568 3.812000036239623 L 5.548999786376953 3.8989999294280997 L 5.385000228881836 4.007999897003173 L 5.37130880355835 4.020107746124267 L 5.285492420196533 4.09600019454956 L 5.23799991607666 4.138000011444091 L 5.107999801635742 4.2849998474121085 L 4.999000072479248 4.448999881744384 L 4.9120001792907715 4.624999999999999 L 4.848999977111816 4.810999870300292 L 4.809999942779541 5.004000186920165 L 4.797999858856201 5.199999809265136 L 4.809999942779541 5.395999908447265 L 4.848999977111816 5.589000225067138 L 4.9120001792907715 5.775000095367431 L 4.999000072479248 5.951000213623046 L 5.107999801635742 6.114999771118162 L 5.133646488189697 6.14400005340576 L 5.23799991607666 6.262000083923338 M -83.96800231933594 -24.00828552246093 L -83.80000305175781 -23.997999191284176 L -83.60399627685547 -24.01000022888183 L -83.41100311279297 -24.048999786376946 L -83.2249984741211 -24.111999511718743 L -83.04900360107422 -24.19899940490722 L -82.88500213623047 -24.308000564575188 L -82.73799896240234 -24.43799972534179 L -82.61595916748047 -24.57600021362304 L -82.60800170898438 -24.58499908447265 L -82.4990005493164 -24.7490005493164 L -82.41200256347656 -24.92499923706054 L -82.3489990234375 -25.11100006103515 L -82.30999755859375 -25.30400085449218 L -82.2979965209961 -25.499999999999993 L -82.30999755859375 -25.695999145507805 L -82.3489990234375 -25.888999938964837 L -82.41200256347656 -26.075000762939446 L -82.4990005493164 -26.250999450683587 L -82.60800170898438 -26.415000915527337 L -82.73799896240234 -26.562000274658196 L -82.80810546875 -26.6240005493164 L -82.88500213623047 -26.691999435424798 L -83.04900360107422 -26.801000595092766 L -83.2249984741211 -26.888000488281243 L -83.41100311279297 -26.95100021362304 L -83.60399627685547 -26.989999771118157 L -83.80000305175781 -27.002000808715813 L -83.96800231933594 -26.991714477539055 L -83.99600219726562 -26.989999771118157 L -84.18900299072266 -26.95100021362304 L -84.375 -26.888000488281243 L -84.5510025024414 -26.801000595092766 L -84.71499633789062 -26.691999435424798 L -84.7918930053711 -26.6240005493164 L -84.86199951171875 -26.562000274658196 L -84.99199676513672 -26.415000915527337 L -85.10099792480469 -26.250999450683587 L -85.18800354003906 -26.075000762939446 L -85.2509994506836 -25.888999938964837 L -85.29000091552734 -25.695999145507805 L -85.3030014038086 -25.499999999999993 L -85.29000091552734 -25.30400085449218 L -85.2509994506836 -25.11100006103515 L -85.18800354003906 -24.92499923706054 L -85.10099792480469 -24.7490005493164 L -84.99199676513672 -24.58499908447265 L -84.98403930664062 -24.57600021362304 L -84.86199951171875 -24.43799972534179 L -84.71499633789062 -24.308000564575188 L -84.5510025024414 -24.19899940490722 L -84.375 -24.111999511718743 L -84.18900299072266 -24.048999786376946 L -83.99600219726562 -24.01000022888183 L -83.96800231933594 -24.00828552246093 M -63.69599914550781 -7.6100001335144025 L -63.5 -7.598000049591063 L -63.487998962402344 -7.598734855651854 L -63.30400085449219 -7.6100001335144025 L -63.111000061035156 -7.649000167846678 L -62.92499923706055 -7.711999893188475 L -62.749000549316406 -7.798999786376951 L -62.584999084472656 -7.907999992370604 L -62.4379997253418 -8.038000106811522 L -62.30799865722656 -8.185000419616697 L -62.303348541259766 -8.19200038909912 L -62.19900131225586 -8.348999977111815 L -62.11199951171875 -8.524999618530272 L -62.04899978637695 -8.711000442504881 L -62.0099983215332 -8.904000282287596 L -61.99800109863281 -9.100000381469725 L -62.0099983215332 -9.295999526977537 L -62.04899978637695 -9.489000320434569 L -62.11199951171875 -9.675000190734862 L -62.19900131225586 -9.850999832153319 L -62.30799865722656 -10.015000343322752 L -62.4379997253418 -10.161999702453612 L -62.52619934082031 -10.239999771118162 L -62.584999084472656 -10.29199981689453 L -62.749000549316406 -10.401000022888182 L -62.92499923706055 -10.487999916076658 L -63.111000061035156 -10.550999641418455 L -63.30400085449219 -10.590000152587889 L -63.487998962402344 -10.60220432281494 L -63.5 -10.602999687194822 L -63.69599914550781 -10.590000152587889 L -63.888999938964844 -10.550999641418455 L -64.07499694824219 -10.487999916076658 L -64.2509994506836 -10.401000022888182 L -64.41500091552734 -10.29199981689453 L -64.47380065917969 -10.239999771118162 L -64.56199645996094 -10.161999702453612 L -64.69200134277344 -10.015000343322752 L -64.8010025024414 -9.850999832153319 L -64.88800048828125 -9.675000190734862 L -64.95099639892578 -9.489000320434569 L -64.98999786376953 -9.295999526977537 L -65.00299835205078 -9.100000381469725 L -64.98999786376953 -8.904000282287596 L -64.95099639892578 -8.711000442504881 L -64.88800048828125 -8.524999618530272 L -64.8010025024414 -8.348999977111815 L -64.6966552734375 -8.19200038909912 L -64.69200134277344 -8.185000419616697 L -64.56199645996094 -8.038000106811522 L -64.41500091552734 -7.907999992370604 L -64.2509994506836 -7.798999786376951 L -64.07499694824219 -7.711999893188475 L -63.888999938964844 -7.649000167846678 L -63.69599914550781 -7.6100001335144025 M -63.487998962402344 38.89052963256835 L -63.29999923706055 38.90299987792968 L -63.104000091552734 38.88999938964843 L -62.9109992980957 38.851001739501946 L -62.724998474121094 38.78799819946288 L -62.54899978637695 38.70100021362304 L -62.3849983215332 38.59199905395507 L -62.237998962402344 38.4620018005371 L -62.108001708984375 38.31499862670898 L -61.999000549316406 38.15100097656249 L -61.9119987487793 37.97499847412109 L -61.88253402709961 37.88800048828124 L -61.8489990234375 37.78900146484374 L -61.810001373291016 37.59600067138671 L -61.79800033569336 37.4000015258789 L -61.810001373291016 37.20399856567382 L -61.8489990234375 37.011001586914055 L -61.89878845214844 36.86399841308593 L -61.9119987487793 36.825000762939446 L -61.999000549316406 36.64899826049804 L -62.108001708984375 36.485000610351555 L -62.237998962402344 36.338001251220696 L -62.3849983215332 36.20800018310546 L -62.54899978637695 36.09899902343749 L -62.724998474121094 36.01200103759765 L -62.9109992980957 35.94900131225585 L -63.104000091552734 35.9099998474121 L -63.29999923706055 35.897998809814446 L -63.487998962402344 35.9095115661621 L -63.49599838256836 35.9099998474121 L -63.68899917602539 35.94900131225585 L -63.875 36.01200103759765 L -64.0510025024414 36.09899902343749 L -64.21499633789062 36.20800018310546 L -64.36199951171875 36.338001251220696 L -64.49199676513672 36.485000610351555 L -64.60099792480469 36.64899826049804 L -64.68800354003906 36.825000762939446 L -64.70121002197266 36.86399841308593 L -64.7509994506836 37.011001586914055 L -64.79000091552734 37.20399856567382 L -64.802001953125 37.4000015258789 L -64.79000091552734 37.59600067138671 L -64.7509994506836 37.78900146484374 L -64.71746826171875 37.88800048828124 L -64.68800354003906 37.97499847412109 L -64.60099792480469 38.15100097656249 L -64.49199676513672 38.31499862670898 L -64.36199951171875 38.4620018005371 L -64.21499633789062 38.59199905395507 L -64.0510025024414 38.70100021362304 L -63.875 38.78799819946288 L -63.68899917602539 38.851001739501946 L -63.49599838256836 38.88999938964843 L -63.487998962402344 38.89052963256835 M -86.08499908447266 -7.907999992370604 L -86.01599884033203 -7.969020366668699 L -85.93800354003906 -8.038000106811522 L -85.80799865722656 -8.185000419616697 L -85.8033447265625 -8.19200038909912 L -85.6989974975586 -8.348999977111815 L -85.61199951171875 -8.524999618530272 L -85.54900360107422 -8.711000442504881 L -85.51000213623047 -8.904000282287596 L -85.49800109863281 -9.100000381469725 L -85.51000213623047 -9.295999526977537 L -85.54900360107422 -9.489000320434569 L -85.61199951171875 -9.675000190734862 L -85.6989974975586 -9.850999832153319 L -85.80799865722656 -10.015000343322752 L -85.93800354003906 -10.161999702453612 L -86.01599884033203 -10.230979919433592 L -86.08499908447266 -10.29199981689453 L -86.2490005493164 -10.401000022888182 L -86.42500305175781 -10.487999916076658 L -86.61100006103516 -10.550999641418455 L -86.80400085449219 -10.590000152587889 L -87 -10.602999687194822 L -87.19599914550781 -10.590000152587889 L -87.38899993896484 -10.550999641418455 L -87.57499694824219 -10.487999916076658 L -87.7030029296875 -10.42472743988037 L -87.7509994506836 -10.401000022888182 L -87.91500091552734 -10.29199981689453 L -88.06199645996094 -10.161999702453612 L -88.06400299072266 -10.159738540649412 L -88.19200134277344 -10.015000343322752 L -88.3010025024414 -9.850999832153319 L -88.38800048828125 -9.675000190734862 L -88.45099639892578 -9.489000320434569 L -88.48999786376953 -9.295999526977537 L -88.50299835205078 -9.100000381469725 L -88.48999786376953 -8.904000282287596 L -88.45099639892578 -8.711000442504881 L -88.38800048828125 -8.524999618530272 L -88.3010025024414 -8.348999977111815 L -88.1966552734375 -8.19200038909912 L -88.19200134277344 -8.185000419616697 L -88.06199645996094 -8.038000106811522 L -87.91500091552734 -7.907999992370604 L -87.7509994506836 -7.798999786376951 L -87.7030029296875 -7.775272846221922 L -87.57499694824219 -7.711999893188475 L -87.38899993896484 -7.649000167846678 L -87.19599914550781 -7.6100001335144025 L -87 -7.598000049591063 L -86.80400085449219 -7.6100001335144025 L -86.61100006103516 -7.649000167846678 L -86.42500305175781 -7.711999893188475 L -86.2490005493164 -7.798999786376951 L -86.08499908447266 -7.907999992370604 M -86.08499908447266 38.59199905395507 L -86.01599884033203 38.53097915649413 L -85.93800354003906 38.4620018005371 L -85.80799865722656 38.31499862670898 L -85.6989974975586 38.15100097656249 L -85.61199951171875 37.97499847412109 L -85.54900360107422 37.78900146484374 L -85.51000213623047 37.59600067138671 L -85.49800109863281 37.4000015258789 L -85.51000213623047 37.20399856567382 L -85.54900360107422 37.011001586914055 L -85.59879302978516 36.86399841308593 L -85.61199951171875 36.825000762939446 L -85.6989974975586 36.64899826049804 L -85.80799865722656 36.485000610351555 L -85.93800354003906 36.338001251220696 L -86.01599884033203 36.2690200805664 L -86.08499908447266 36.20800018310546 L -86.2490005493164 36.09899902343749 L -86.42500305175781 36.01200103759765 L -86.61100006103516 35.94900131225585 L -86.80400085449219 35.9099998474121 L -87 35.897998809814446 L -87.19599914550781 35.9099998474121 L -87.38899993896484 35.94900131225585 L -87.57499694824219 36.01200103759765 L -87.7030029296875 36.075271606445305 L -87.7509994506836 36.09899902343749 L -87.91500091552734 36.20800018310546 L -88.06199645996094 36.338001251220696 L -88.06400299072266 36.34026336669921 L -88.19200134277344 36.485000610351555 L -88.3010025024414 36.64899826049804 L -88.38800048828125 36.825000762939446 L -88.40120697021484 36.86399841308593 L -88.45099639892578 37.011001586914055 L -88.48999786376953 37.20399856567382 L -88.50299835205078 37.4000015258789 L -88.48999786376953 37.59600067138671 L -88.45099639892578 37.78900146484374 L -88.38800048828125 37.97499847412109 L -88.3010025024414 38.15100097656249 L -88.19200134277344 38.31499862670898 L -88.06400299072266 38.45973968505859 L -88.06199645996094 38.4620018005371 L -87.91500091552734 38.59199905395507 L -87.7509994506836 38.70100021362304 L -87.7030029296875 38.72472763061523 L -87.57499694824219 38.78799819946288 L -87.38899993896484 38.851001739501946 L -87.19599914550781 38.88999938964843 L -87 38.90299987792968 L -86.80400085449219 38.88999938964843 L -86.61100006103516 38.851001739501946 L -86.42500305175781 38.78799819946288 L -86.2490005493164 38.70100021362304 L -86.08499908447266 38.59199905395507 M -57.391998291015625 -24.58499908447265 L -57.34400177001953 -24.530723571777337 L -57.262001037597656 -24.43799972534179 L -57.1150016784668 -24.308000564575188 L -56.95100021362305 -24.19899940490722 L -56.775001525878906 -24.111999511718743 L -56.5890007019043 -24.048999786376946 L -56.395999908447266 -24.01000022888183 L -56.20000076293945 -23.997999191284176 L -56.00400161743164 -24.01000022888183 L -55.81100082397461 -24.048999786376946 L -55.625 -24.111999511718743 L -55.44900131225586 -24.19899940490722 L -55.28499984741211 -24.308000564575188 L -55.13800048828125 -24.43799972534179 L -55.015960693359375 -24.57600021362304 L -55.007999420166016 -24.58499908447265 L -54.89899826049805 -24.7490005493164 L -54.8120002746582 -24.92499923706054 L -54.749000549316406 -25.11100006103515 L -54.709999084472656 -25.30400085449218 L -54.698001861572266 -25.499999999999993 L -54.709999084472656 -25.695999145507805 L -54.749000549316406 -25.888999938964837 L -54.8120002746582 -26.075000762939446 L -54.89899826049805 -26.250999450683587 L -55.007999420166016 -26.415000915527337 L -55.13800048828125 -26.562000274658196 L -55.28499984741211 -26.691999435424798 L -55.29600143432617 -26.699310302734368 L -55.44900131225586 -26.801000595092766 L -55.625 -26.888000488281243 L -55.81100082397461 -26.95100021362304 L -56.00400161743164 -26.989999771118157 L -56.20000076293945 -27.002000808715813 L -56.395999908447266 -26.989999771118157 L -56.5890007019043 -26.95100021362304 L -56.775001525878906 -26.888000488281243 L -56.95100021362305 -26.801000595092766 L -57.1150016784668 -26.691999435424798 L -57.262001037597656 -26.562000274658196 L -57.34400177001953 -26.46927642822265 L -57.391998291015625 -26.415000915527337 L -57.500999450683594 -26.250999450683587 L -57.5880012512207 -26.075000762939446 L -57.6510009765625 -25.888999938964837 L -57.689998626708984 -25.695999145507805 L -57.702999114990234 -25.499999999999993 L -57.689998626708984 -25.30400085449218 L -57.6510009765625 -25.11100006103515 L -57.5880012512207 -24.92499923706054 L -57.500999450683594 -24.7490005493164 L -57.391998291015625 -24.58499908447265 M -52.4900016784668 -77.79599761962889 L -52.50299835205078 -77.59999847412108 L -52.4900016784668 -77.40399932861327 L -52.45100021362305 -77.21099853515624 L -52.38800048828125 -77.02500152587889 L -52.30099868774414 -76.84899902343749 L -52.19200134277344 -76.68499755859374 L -52.0620002746582 -76.53800201416014 L -51.915000915527344 -76.40799713134764 L -51.750999450683594 -76.2990036010742 L -51.57500076293945 -76.21199798583983 L -51.388999938964844 -76.1490020751953 L -51.20000076293945 -76.11080932617186 L -51.19599914550781 -76.11000061035155 L -51 -76.0970001220703 L -50.80400085449219 -76.11000061035155 L -50.611000061035156 -76.1490020751953 L -50.42499923706055 -76.21199798583983 L -50.249000549316406 -76.2990036010742 L -50.084999084472656 -76.40799713134764 L -49.9379997253418 -76.53800201416014 L -49.80799865722656 -76.68499755859374 L -49.7315673828125 -76.8000030517578 L -49.69900131225586 -76.84899902343749 L -49.61199951171875 -77.02500152587889 L -49.54899978637695 -77.21099853515624 L -49.5099983215332 -77.40399932861327 L -49.49800109863281 -77.59999847412108 L -49.5099983215332 -77.79599761962889 L -49.51565933227539 -77.82399749755858 L -49.54899978637695 -77.98899841308592 L -49.61199951171875 -78.1750030517578 L -49.69900131225586 -78.35099792480467 L -49.80799865722656 -78.51499938964842 L -49.9379997253418 -78.66200256347655 L -50.084999084472656 -78.79199981689452 L -50.249000549316406 -78.90100097656249 L -50.42499923706055 -78.98799896240233 L -50.611000061035156 -79.05100250244139 L -50.80400085449219 -79.08999633789061 L -51 -79.10299682617186 L -51.19599914550781 -79.08999633789061 L -51.20000076293945 -79.08919525146483 L -51.388999938964844 -79.05100250244139 L -51.57500076293945 -78.98799896240233 L -51.750999450683594 -78.90100097656249 L -51.915000915527344 -78.79199981689452 L -52.0620002746582 -78.66200256347655 L -52.19200134277344 -78.51499938964842 L -52.30099868774414 -78.35099792480467 L -52.38800048828125 -78.1750030517578 L -52.45100021362305 -77.98899841308592 L -52.48434066772461 -77.82399749755858 L -52.4900016784668 -77.79599761962889 M -98.4489974975586 -75.19899749755858 L -98.625 -75.11199951171874 L -98.81099700927734 -75.0490036010742 L -99.00399780273438 -75.01000213623045 L -99.19999694824219 -74.9980010986328 L -99.39600372314453 -75.01000213623045 L -99.58899688720703 -75.0490036010742 L -99.7750015258789 -75.11199951171874 L -99.95099639892578 -75.19899749755858 L -100.11499786376953 -75.30799865722655 L -100.26200103759766 -75.43800354003905 L -100.39199829101562 -75.58499908447264 L -100.5009994506836 -75.74900054931639 L -100.51434326171875 -75.77600097656249 L -100.58799743652344 -75.9250030517578 L -100.6510009765625 -76.11100006103514 L -100.69000244140625 -76.30400085449217 L -100.7030029296875 -76.49999999999999 L -100.69000244140625 -76.6959991455078 L -100.6510009765625 -76.88899993896483 L -100.58799743652344 -77.07499694824217 L -100.5009994506836 -77.25099945068358 L -100.39199829101562 -77.41500091552733 L -100.26200103759766 -77.56199645996092 L -100.11499786376953 -77.69200134277342 L -99.95099639892578 -77.80100250244139 L -99.90447235107422 -77.82399749755858 L -99.7750015258789 -77.88800048828124 L -99.58899688720703 -77.95099639892577 L -99.39600372314453 -77.98999786376952 L -99.19999694824219 -78.00299835205077 L -99.00399780273438 -77.98999786376952 L -98.81099700927734 -77.95099639892577 L -98.625 -77.88800048828124 L -98.49552917480469 -77.82399749755858 L -98.4489974975586 -77.80100250244139 L -98.30400085449219 -77.70462799072264 L -98.28500366210938 -77.69200134277342 L -98.13800048828125 -77.56199645996092 L -98.00800323486328 -77.41500091552733 L -97.89900207519531 -77.25099945068358 L -97.81199645996094 -77.07499694824217 L -97.7490005493164 -76.88899993896483 L -97.70999908447266 -76.6959991455078 L -97.697998046875 -76.49999999999999 L -97.70999908447266 -76.30400085449217 L -97.7490005493164 -76.11100006103514 L -97.81199645996094 -75.9250030517578 L -97.88565063476562 -75.77600097656249 L -97.89900207519531 -75.74900054931639 L -98.00800323486328 -75.58499908447264 L -98.13800048828125 -75.43800354003905 L -98.28500366210938 -75.30799865722655 L -98.30400085449219 -75.29537200927733 L -98.4489974975586 -75.19899749755858 M 58.715999603271484 -18.034000396728512 L 58.542999267578125 -18.194999694824215 L 58.25600051879883 -18.247999191284176 L 57.972999572753906 -18.194999694824215 L 57.803001403808594 -18.034000396728512 L 57.74599838256836 -17.764999389648434 L 57.7599983215332 -17.642999649047848 L 57.801998138427734 -17.53300094604492 L 57.87200164794922 -17.434000015258786 L 57.97100067138672 -17.353000640869137 L 58.0989990234375 -17.305000305175778 L 58.25600051879883 -17.28800010681152 L 58.542999267578125 -17.34099960327148 L 58.715999603271484 -17.499999999999996 L 58.77299880981445 -17.764999389648434 L 58.715999603271484 -18.034000396728512 M -22.42300033569336 -65.80599975585936 L -22.42300033569336 -66.00199890136717 L -26.202999114990234 -66.00199890136717 L -28.37700080871582 -66.00199890136717 L -28.427000045776367 -66.00199890136717 L -28.427000045776367 -65.80599975585936 L -28.427000045776367 -65.30500030517577 L -28.427000045776367 -60.681999206542955 L -28.427000045776367 -60.18099975585936 L -28.427000045776367 -59.997001647949205 L -26.202999114990234 -59.997001647949205 L -22.42300033569336 -59.997001647949205 L -22.42300033569336 -60.18099975585936 L -22.42300033569336 -60.681999206542955 L -22.42300033569336 -64.95200347900389 L -22.42300033569336 -65.30500030517577 L -22.42300033569336 -65.80599975585936 M -3.4079999923706055 97.00299835205075 L -3.4079999923706055 93.20099639892577 L -3.4079999923706055 63.30599975585936 L -3.4079999923706055 54.9980010986328 L -7.002999782562256 54.9980010986328 L -7.002999782562256 63.30599975585936 L -7.002999782562256 93.20099639892577 L -7.002999782562256 97.00299835205075 L -3.4079999923706055 97.00299835205075 M -9.407999992370605 97.00299835205075 L -9.407999992370605 93.20099639892577 L -9.407999992370605 63.30599975585936 L -9.407999992370605 54.9980010986328 L -13.003000259399414 54.9980010986328 L -13.003000259399414 63.30599975585936 L -13.003000259399414 93.20099639892577 L -13.003000259399414 97.00299835205075 L -9.407999992370605 97.00299835205075 M -14.998000144958496 97.00299835205075 L -14.998000144958496 93.20099639892577 L -14.998000144958496 63.30599975585936 L -14.998000144958496 54.9980010986328 L -18.591999053955078 54.9980010986328 L -18.591999053955078 63.30599975585936 L -18.591999053955078 93.20099639892577 L -18.591999053955078 97.00299835205075 L -14.998000144958496 97.00299835205075 M -20.99799919128418 97.00299835205075 L -20.99799919128418 93.20099639892577 L -20.99799919128418 63.30599975585936 L -20.99799919128418 54.9980010986328 L -24.591999053955078 54.9980010986328 L -24.591999053955078 63.30599975585936 L -24.591999053955078 93.20099639892577 L -24.591999053955078 97.00299835205075 L -20.99799919128418 97.00299835205075 M 17.702999114990234 81.10299682617186 L 17.702999114990234 70.29799652099608 L 11.196999549865723 70.29799652099608 L 11.196999549865723 81.10299682617186 L 17.702999114990234 81.10299682617186 M -59.20199966430664 58.89799880981444 L -59.20199966430664 64.30599975585936 L -59.20199966430664 72.90299987792967 L -45.198001861572266 72.90299987792967 L -45.198001861572266 64.30599975585936 L -45.198001861572266 58.89799880981444 L -59.20199966430664 58.89799880981444 M -45.198001861572266 100.90299987792966 L -45.198001861572266 94.20099639892577 L -45.198001861572266 90.8980026245117 L -59.20199966430664 90.8980026245117 L -59.20199966430664 94.20099639892577 L -59.20199966430664 100.90299987792966 L -45.198001861572266 100.90299987792966 M -99.19999694824219 -74.9980010986328 L -97.697998046875 -74.9980010986328 L -97.697998046875 -76.49999999999999 L -97.697998046875 -78.00299835205077 L -99.19999694824219 -78.00299835205077 L -100.7030029296875 -78.00299835205077 L -100.7030029296875 -76.49999999999999 L -100.7030029296875 -74.9980010986328 L -100.12976837158203 -74.9980010986328 z" fill="none" stroke="rgb(255,0,0)" stroke-width="0.001mm" />
</svg>